<svg id="Group_237" data-name="Group 237" xmlns="http://www.w3.org/2000/svg" width="319.999" height="236.635" viewBox="0 0 319.999 236.635">
  <path id="Path_358" data-name="Path 358" d="M515.154,532.193s42.5-5.1,57.371-13.174,125.365-11.9,125.365,13.174-127.065,36.122-127.065,36.122l-66.72-3.825Z" transform="translate(-378.74 -371.627)" fill="#fbbebe"/>
  <path id="Path_359" data-name="Path 359" d="M515.154,532.193s42.5-5.1,57.371-13.174,125.365-11.9,125.365,13.174-127.065,36.122-127.065,36.122l-66.72-3.825Z" transform="translate(-378.74 -371.627)" opacity="0.1"/>
  <path id="Path_360" data-name="Path 360" d="M305.738,529.458l-8.924,25.923L157,557.081V518.834s53.546-12.324,96.042,14.024C253.042,532.857,303.188,526.908,305.738,529.458Z" transform="translate(-157 -373.566)" fill="#0099cf"/>
  <path id="Path_362" data-name="Path 362" d="M815.132,464.75c0,1.448-3.248,2.524-3.567,3.921s1.613,3.493,1,4.817a26.209,26.209,0,0,1-2.229,3.876c-.8,1.145-3.271.978-4.284,2.052a34.063,34.063,0,0,1-3.147,2.736c-1.075.894-2.532,1.082-3.754,1.9-1.162.783-1.022,3.654-2.308,4.366-1.229.681-3.11.133-4.443.745-1.279.588-1.954,2.713-3.322,3.232-1.319.5-2.952.285-4.346.72-1.35.42-2.86.352-4.274.706-1.373.343-2.422,2.4-3.851,2.68-1.392.27-3.023-.451-4.463-.246-1.406.2-3.04-1.579-4.486-1.444-1.415.132-2.749.955-4.2,1.022-1.421.065-2.826.691-4.276.691s-2.945,1.36-4.366,1.295c-1.449-.066-2.761-2.128-4.177-2.26-1.446-.135-3.171,2.018-4.577,1.818-1.439-.2-2.579-2.312-3.971-2.583-1.429-.278-3.275,1.229-4.648.885-1.415-.354-2.254-2.806-3.6-3.226-1.395-.434-3.123.154-4.442-.347-1.368-.52-3.034-.436-4.314-1.024-1.333-.612-2.29-2.061-3.518-2.742-1.286-.713-1.879-2.48-3.041-3.263-1.223-.823-3.086-.718-4.161-1.612-1.135-.944-3.262-.993-4.22-2.009-1.013-1.074-1.423-2.878-2.223-4.024-.842-1.206.811-3.757.223-5.032-.61-1.323-3.162-1.861-3.479-3.246a20.381,20.381,0,0,1-.5-4.409c0-1.448,2.182-2.555,2.5-3.952s-1.29-3.376-.679-4.7c.588-1.275.513-3.236,1.356-4.442.8-1.145,2.8-1.594,3.81-2.669.958-1.016,2.673-1.3,3.808-2.243,1.075-.894.938-3.591,2.161-4.414,1.162-.783,2.785-1.14,4.071-1.852,1.229-.681,2.968-.566,4.3-1.178,1.279-.588,3.283.57,4.651.051,1.319-.5,2.389-1.6,3.784-2.031,1.35-.42,1.984-3.624,3.4-3.978,1.373-.343,3.063.227,4.492-.051,1.392-.27,3.265,2.258,4.7,2.053,1.406-.2,2.457-3.575,3.9-3.709,1.415-.132,3.011,1.616,4.46,1.55,1.421-.065,2.848.959,4.3.959s2.894-1.406,4.315-1.34c1.449.067,2.727,1.924,4.143,2.056,1.446.135,3.221-2.691,4.627-2.491,1.439.2,2.551,2.389,3.943,2.659,1.429.278,3.219-1.078,4.593-.735,1.414.354,2.266,2.675,3.615,3.1,1.394.434,2.254,2.072,3.573,2.573,1.368.52,3.909-1.912,5.189-1.324,1.333.612,2.484,1.672,3.713,2.353,1.286.713,3.33.354,4.493,1.137,1.223.823,1.523,3.033,2.6,3.927,1.135.944,3.008,1.228,3.966,2.244,1.013,1.074,1.154,3,1.954,4.145.842,1.207.816,2.878,1.4,4.153.61,1.323,2.24,2.324,2.557,3.71S815.132,463.3,815.132,464.75Z" transform="translate(-506.546 -319.695)" fill="#333"/>
  <path id="Path_363" data-name="Path 363" d="M580.88,565.47s48.021-24.648,79.044-15.3,74.369-6.8,79.469-1.275,12.324,65.02-48.871,68.42-113.466-10.2-113.466-10.2Z" transform="translate(-425.343 -393.854)" fill="#fbbebe"/>
  <path id="Path_364" data-name="Path 364" d="M301.229,564.426s18.958-1.2,18.108,5.6-1.7,59.5-6.8,60.77-45.471,1.275-62.045,1.275H157V550.6s66.295-3.947,99.442,12.627C256.442,563.226,296.294,562.651,301.229,564.426Z" transform="translate(-157 -395.436)" fill="#00bcff"/>
  <path id="Path_365" data-name="Path 365" d="M786.055,236.779a9.767,9.767,0,0,0-8.419,5.886c-2.105,5.088.605,11.066,4.674,14.776s9.3,5.831,14.044,8.619c6.379,3.745,12.11,8.942,15.3,15.615s3.531,14.938-.221,21.312c-3.482,5.917-9.814,9.458-15.852,12.723" transform="translate(-553.012 -195.221)" fill="none" stroke="#3f3d56" stroke-miterlimit="10" stroke-width="1"/>
  <path id="Path_366" data-name="Path 366" d="M833.12,150.885a9.767,9.767,0,0,0-8.419,5.886c-2.105,5.088.605,11.066,4.674,14.776s9.3,5.832,14.044,8.619c6.379,3.745,12.11,8.943,15.3,15.615s3.531,14.938-.22,21.312c-3.482,5.917-9.814,9.458-15.852,12.723" transform="translate(-583.079 -140.35)" fill="none" stroke="#3f3d56" stroke-miterlimit="10" stroke-width="1"/>
  <path id="Path_367" data-name="Path 367" d="M931.911,167.6a9.767,9.767,0,0,0-10.26-.5c-4.779,2.735-6.3,9.12-5.35,14.545s3.78,10.3,5.829,15.413c2.751,6.866,4.1,14.485,2.54,21.714s-6.352,13.973-13.221,16.717c-6.375,2.547-13.549,1.471-20.323.356" transform="translate(-625.979 -149.929)" fill="none" stroke="#3f3d56" stroke-miterlimit="10" stroke-width="1"/>
  <ellipse id="Ellipse_47" data-name="Ellipse 47" cx="10.199" cy="4.954" rx="10.199" ry="4.954" transform="translate(246.48 71.894)" fill="#57b894"/>
  <ellipse id="Ellipse_48" data-name="Ellipse 48" cx="10.199" cy="4.954" rx="10.199" ry="4.954" transform="translate(245.205 71.044)" fill="none" stroke="#3f3d56" stroke-miterlimit="10" stroke-width="1"/>
  <ellipse id="Ellipse_49" data-name="Ellipse 49" cx="10.199" cy="4.954" rx="10.199" ry="4.954" transform="translate(268.578 67.645)" fill="#57b894"/>
  <ellipse id="Ellipse_50" data-name="Ellipse 50" cx="10.199" cy="4.954" rx="10.199" ry="4.954" transform="translate(267.303 66.795)" fill="none" stroke="#3f3d56" stroke-miterlimit="10" stroke-width="1"/>
  <ellipse id="Ellipse_51" data-name="Ellipse 51" cx="10.199" cy="4.954" rx="10.199" ry="4.954" transform="translate(271.978 86.343)" fill="#57b894"/>
  <ellipse id="Ellipse_52" data-name="Ellipse 52" cx="10.199" cy="4.954" rx="10.199" ry="4.954" transform="translate(270.703 85.493)" fill="none" stroke="#3f3d56" stroke-miterlimit="10" stroke-width="1"/>
  <ellipse id="Ellipse_53" data-name="Ellipse 53" cx="10.199" cy="4.954" rx="10.199" ry="4.954" transform="translate(269.853 39.597)" fill="#57b894"/>
  <ellipse id="Ellipse_54" data-name="Ellipse 54" cx="10.199" cy="4.954" rx="10.199" ry="4.954" transform="translate(268.578 38.747)" fill="none" stroke="#3f3d56" stroke-miterlimit="10" stroke-width="1"/>
  <ellipse id="Ellipse_55" data-name="Ellipse 55" cx="10.199" cy="4.954" rx="10.199" ry="4.954" transform="translate(244.355 36.622)" fill="#57b894"/>
  <ellipse id="Ellipse_56" data-name="Ellipse 56" cx="10.199" cy="4.954" rx="10.199" ry="4.954" transform="translate(243.081 35.772)" fill="none" stroke="#3f3d56" stroke-miterlimit="10" stroke-width="1"/>
  <ellipse id="Ellipse_57" data-name="Ellipse 57" cx="10.199" cy="4.954" rx="10.199" ry="4.954" transform="translate(255.829 25.998)" fill="#57b894"/>
  <ellipse id="Ellipse_58" data-name="Ellipse 58" cx="10.199" cy="4.954" rx="10.199" ry="4.954" transform="translate(254.555 25.148)" fill="none" stroke="#3f3d56" stroke-miterlimit="10" stroke-width="1"/>
  <ellipse id="Ellipse_59" data-name="Ellipse 59" cx="10.199" cy="4.954" rx="10.199" ry="4.954" transform="translate(280.902 28.123)" fill="#57b894"/>
  <ellipse id="Ellipse_60" data-name="Ellipse 60" cx="10.199" cy="4.954" rx="10.199" ry="4.954" transform="translate(279.627 27.273)" fill="none" stroke="#3f3d56" stroke-miterlimit="10" stroke-width="1"/>
  <ellipse id="Ellipse_61" data-name="Ellipse 61" cx="10.199" cy="4.954" rx="10.199" ry="4.954" transform="translate(299.601 42.147)" fill="#57b894"/>
  <ellipse id="Ellipse_62" data-name="Ellipse 62" cx="10.199" cy="4.954" rx="10.199" ry="4.954" transform="translate(298.326 41.297)" fill="none" stroke="#3f3d56" stroke-miterlimit="10" stroke-width="1"/>
  <ellipse id="Ellipse_63" data-name="Ellipse 63" cx="10.199" cy="4.954" rx="10.199" ry="4.954" transform="translate(233.731 17.499)" fill="#57b894"/>
  <ellipse id="Ellipse_64" data-name="Ellipse 64" cx="10.199" cy="4.954" rx="10.199" ry="4.954" transform="translate(232.456 16.649)" fill="none" stroke="#3f3d56" stroke-miterlimit="10" stroke-width="1"/>
  <ellipse id="Ellipse_65" data-name="Ellipse 65" cx="10.199" cy="4.954" rx="10.199" ry="4.954" transform="translate(240.106 1.35)" fill="#57b894"/>
  <ellipse id="Ellipse_66" data-name="Ellipse 66" cx="10.199" cy="4.954" rx="10.199" ry="4.954" transform="translate(238.831 0.5)" fill="none" stroke="#3f3d56" stroke-miterlimit="10" stroke-width="1"/>
  <ellipse id="Ellipse_67" data-name="Ellipse 67" cx="10.199" cy="4.954" rx="10.199" ry="4.954" transform="translate(299.176 13.249)" fill="#57b894"/>
  <ellipse id="Ellipse_68" data-name="Ellipse 68" cx="10.199" cy="4.954" rx="10.199" ry="4.954" transform="translate(297.901 12.399)" fill="none" stroke="#3f3d56" stroke-miterlimit="10" stroke-width="1"/>
  <ellipse id="Ellipse_69" data-name="Ellipse 69" cx="10.199" cy="4.954" rx="10.199" ry="4.954" transform="translate(205.259 52.346)" fill="#57b894"/>
  <ellipse id="Ellipse_70" data-name="Ellipse 70" cx="10.199" cy="4.954" rx="10.199" ry="4.954" transform="translate(203.984 51.496)" fill="none" stroke="#3f3d56" stroke-miterlimit="10" stroke-width="1"/>
  <ellipse id="Ellipse_71" data-name="Ellipse 71" cx="10.199" cy="4.954" rx="10.199" ry="4.954" transform="translate(240.531 49.796)" fill="#57b894"/>
  <ellipse id="Ellipse_72" data-name="Ellipse 72" cx="10.199" cy="4.954" rx="10.199" ry="4.954" transform="translate(239.256 48.946)" fill="none" stroke="#3f3d56" stroke-miterlimit="10" stroke-width="1"/>
  <ellipse id="Ellipse_73" data-name="Ellipse 73" cx="10.199" cy="4.954" rx="10.199" ry="4.954" transform="translate(286.852 53.621)" fill="#57b894"/>
  <ellipse id="Ellipse_74" data-name="Ellipse 74" cx="10.199" cy="4.954" rx="10.199" ry="4.954" transform="translate(285.577 52.771)" fill="none" stroke="#3f3d56" stroke-miterlimit="10" stroke-width="1"/>
  <ellipse id="Ellipse_75" data-name="Ellipse 75" cx="10.199" cy="4.954" rx="10.199" ry="4.954" transform="translate(262.204 55.321)" fill="#57b894"/>
  <ellipse id="Ellipse_76" data-name="Ellipse 76" cx="10.199" cy="4.954" rx="10.199" ry="4.954" transform="translate(260.929 54.471)" fill="none" stroke="#3f3d56" stroke-miterlimit="10" stroke-width="1"/>
  <ellipse id="Ellipse_77" data-name="Ellipse 77" cx="10.199" cy="4.954" rx="10.199" ry="4.954" transform="translate(263.904 12.824)" fill="#57b894"/>
  <ellipse id="Ellipse_78" data-name="Ellipse 78" cx="10.199" cy="4.954" rx="10.199" ry="4.954" transform="translate(262.629 11.974)" fill="none" stroke="#3f3d56" stroke-miterlimit="10" stroke-width="1"/>
  <ellipse id="Ellipse_79" data-name="Ellipse 79" cx="10.199" cy="4.954" rx="10.199" ry="4.954" transform="translate(220.132 39.172)" fill="#57b894"/>
  <ellipse id="Ellipse_80" data-name="Ellipse 80" cx="10.199" cy="4.954" rx="10.199" ry="4.954" transform="translate(218.858 38.322)" fill="none" stroke="#3f3d56" stroke-miterlimit="10" stroke-width="1"/>
  <ellipse id="Ellipse_81" data-name="Ellipse 81" cx="10.199" cy="4.954" rx="10.199" ry="4.954" transform="translate(226.082 58.295)" fill="#57b894"/>
  <ellipse id="Ellipse_82" data-name="Ellipse 82" cx="10.199" cy="4.954" rx="10.199" ry="4.954" transform="translate(224.807 57.445)" fill="none" stroke="#3f3d56" stroke-miterlimit="10" stroke-width="1"/>
  <g id="Group_234" data-name="Group 234" transform="translate(229.2 90.152)" opacity="0.3">
    <ellipse id="Ellipse_83" data-name="Ellipse 83" cx="5.343" cy="2.314" rx="5.343" ry="2.314" transform="translate(0.672 9.328) rotate(-60.799)" fill="#57b894"/>
    <ellipse id="Ellipse_84" data-name="Ellipse 84" cx="5.343" cy="2.314" rx="5.343" ry="2.314" transform="translate(0 9.718) rotate(-60.799)" fill="none" stroke="#3f3d56" stroke-miterlimit="10" stroke-width="1"/>
  </g>
  <g id="Group_235" data-name="Group 235" transform="translate(279.94 99.832)" opacity="0.3">
    <ellipse id="Ellipse_85" data-name="Ellipse 85" cx="2.314" cy="5.343" rx="2.314" ry="5.343" transform="matrix(0.667, -0.745, 0.745, 0.667, 0.233, 4.19)" fill="#57b894"/>
    <ellipse id="Ellipse_86" data-name="Ellipse 86" cx="2.314" cy="5.343" rx="2.314" ry="5.343" transform="matrix(0.667, -0.745, 0.745, 0.667, 0, 3.449)" fill="none" stroke="#3f3d56" stroke-miterlimit="10" stroke-width="1"/>
  </g>
  <g id="Group_236" data-name="Group 236" transform="translate(232.344 73.059)" opacity="0.3">
    <ellipse id="Ellipse_87" data-name="Ellipse 87" cx="2.314" cy="5.343" rx="2.314" ry="5.343" transform="matrix(0.667, -0.745, 0.745, 0.667, 0.233, 4.19)" fill="#57b894"/>
    <ellipse id="Ellipse_88" data-name="Ellipse 88" cx="2.314" cy="5.343" rx="2.314" ry="5.343" transform="matrix(0.667, -0.745, 0.745, 0.667, 0, 3.449)" fill="none" stroke="#3f3d56" stroke-miterlimit="10" stroke-width="1"/>
  </g>
</svg>
