<svg xmlns="http://www.w3.org/2000/svg" xmlns:xlink="http://www.w3.org/1999/xlink" width="323.247" height="245.939" viewBox="0 0 323.247 245.939">
  <defs>
    <linearGradient id="linear-gradient" x1="0.5" y1="1" x2="0.5" gradientUnits="objectBoundingBox">
      <stop offset="0" stop-color="gray" stop-opacity="0.251"/>
      <stop offset="0.54" stop-color="gray" stop-opacity="0.122"/>
      <stop offset="1" stop-color="gray" stop-opacity="0.102"/>
    </linearGradient>
    <linearGradient id="linear-gradient-2" x1="0.63" y1="0.974" x2="0.63" y2="-0.017" xlink:href="#linear-gradient"/>
    <linearGradient id="linear-gradient-3" x1="0.5" y1="1" x2="0.5" y2="0" xlink:href="#linear-gradient"/>
  </defs>
  <g id="Group_233" data-name="Group 233" transform="translate(0.002 0.022)">
    <path id="Path_222" data-name="Path 222" d="M142.713,97.659c-1.717,2.083-2.378,5.013-3.117,7.767-5.953,22.194-20.621,40.046-37.326,52.8-7.074,5.4-15.687,12.645-14.139,22.329.833,5.2,4.49,9.029,7.206,13.265a41.153,41.153,0,0,1,4.831,31.543c-3.089,12.081-11.724,23.353-9.051,35.569,1.648,7.519,7.243,12.87,12.623,17.47q12.588,10.756,25.979,20.151c5.984,4.2,12.35,8.284,19.324,8.816,6.141.47,12.156-1.864,17.987-4.167,5.094-2.015,10.317-4.111,14.431-8.146,2.685-2.635,4.825-6.034,7.807-8.19,7.005-5.063,16-1.855,24.036.313a83.69,83.69,0,0,0,57.277-5.245c27.667-13,48.756-40.306,75.818-54.956,11.636-6.3,24.293-10.21,35.068-18.325a65.508,65.508,0,0,0,15.414-16.68A72.154,72.154,0,0,0,408.159,147.7c-1.272-15.684-8.4-30.8-19.594-39.651C376.582,98.57,361.446,96.8,347.812,91.111c-14.073-5.884-26.6-15.991-40.538-22.291a82.921,82.921,0,0,0-71.529,1.6C220.565,78.1,205.185,96,188.28,97.364,176.236,98.3,152.119,86.248,142.713,97.659Z" transform="translate(-87.95 -61.51)" fill="#6c63ff" opacity="0.1"/>
    <path id="Path_223" data-name="Path 223" d="M952.144,300.2s-4.562-15.493.855-26.894a24.469,24.469,0,0,0,1.98-15.352,41.157,41.157,0,0,0-2.174-7.206" transform="translate(-680.161 -191.477)" fill="none" stroke="#535461" stroke-miterlimit="10" stroke-width="2"/>
    <path id="Path_224" data-name="Path 224" d="M953.872,219.649c0,1.9-3.446,7.4-3.446,7.4s-3.446-5.5-3.446-7.4a3.446,3.446,0,1,1,6.874,0Z" transform="translate(-677.841 -167.578)" fill="#27d799"/>
    <path id="Path_225" data-name="Path 225" d="M971.921,250.121C970.89,251.716,965,254.47,965,254.47s.107-6.488,1.137-8.083a3.446,3.446,0,0,1,5.771,3.738Z" transform="translate(-690.222 -187.536)" fill="#27d799"/>
    <path id="Path_226" data-name="Path 226" d="M968.446,304.652c-1.695.855-8.146.263-8.146.263s3.368-5.549,5.063-6.4a3.446,3.446,0,0,1,3.1,6.138Z" transform="translate(-686.995 -224.093)" fill="#27d799"/>
    <path id="Path_227" data-name="Path 227" d="M958.4,348.781c-1.526,1.128-8,1.639-8,1.639s2.381-6.037,3.91-7.168a3.446,3.446,0,0,1,4.073,5.527Z" transform="translate(-680.196 -254.653)" fill="#27d799"/>
    <path id="Path_228" data-name="Path 228" d="M939.309,263.036c1.363,1.322,7.707,2.694,7.707,2.694s-1.566-6.3-2.917-7.626a3.446,3.446,0,1,0-4.79,4.931Z" transform="translate(-671.737 -195.736)" fill="#27d799"/>
    <path id="Path_229" data-name="Path 229" d="M926.816,313.092c1.695.855,8.146.263,8.146.263s-3.368-5.549-5.063-6.4a3.446,3.446,0,0,0-3.1,6.138Z" transform="translate(-662.844 -229.889)" fill="#27d799"/>
    <path id="Path_230" data-name="Path 230" d="M922.513,363.984c1.526,1.128,8,1.639,8,1.639s-2.381-6.037-3.91-7.168a3.446,3.446,0,1,0-4.073,5.527Z" transform="translate(-659.919 -264.843)" fill="#6c63ff"/>
    <path id="Path_237" data-name="Path 237" d="M922.513,363.984c1.526,1.128,8,1.639,8,1.639s-2.381-6.037-3.91-7.168a3.446,3.446,0,1,0-4.073,5.527Z" transform="translate(-659.919 -264.843)" fill="#6c63ff" opacity="0.1"/>
    <path id="Path_238" data-name="Path 238" d="M1013.144,379.2s-4.562-15.493.855-26.894a24.469,24.469,0,0,0,1.98-15.352,41.158,41.158,0,0,0-2.174-7.206" transform="translate(-722.049 -245.726)" fill="none" stroke="#535461" stroke-miterlimit="10" stroke-width="2"/>
    <path id="Path_239" data-name="Path 239" d="M1014.872,298.648c0,1.9-3.446,7.4-3.446,7.4s-3.446-5.5-3.446-7.4a3.446,3.446,0,1,1,6.874,0Z" transform="translate(-719.73 -221.827)" fill="#27d799"/>
    <path id="Path_240" data-name="Path 240" d="M1032.948,328.226c-1.031,1.595-6.908,4.345-6.908,4.345s.107-6.488,1.137-8.083a3.446,3.446,0,1,1,5.771,3.738Z" transform="translate(-732.138 -240.89)" fill="#27d799"/>
    <path id="Path_241" data-name="Path 241" d="M1029.446,383.153c-1.695.855-8.146.263-8.146.263s3.368-5.549,5.063-6.4a3.446,3.446,0,1,1,3.1,6.138Z" transform="translate(-728.884 -277.844)" fill="#6c63ff"/>
    <path id="Path_242" data-name="Path 242" d="M1019.4,427.781c-1.526,1.128-8,1.639-8,1.639s2.381-6.037,3.91-7.168a3.446,3.446,0,0,1,4.073,5.527Z" transform="translate(-722.085 -308.902)" fill="#6c63ff"/>
    <path id="Path_243" data-name="Path 243" d="M1001.083,342.788c1.363,1.322,7.707,2.694,7.707,2.694s-1.566-6.3-2.917-7.626a3.446,3.446,0,0,0-4.79,4.931Z" transform="translate(-714.4 -250.737)" fill="#27d799"/>
    <path id="Path_244" data-name="Path 244" d="M987.816,392.092c1.695.855,8.146.263,8.146.263s-3.368-5.549-5.063-6.4a3.446,3.446,0,0,0-3.1,6.138Z" transform="translate(-704.733 -284.138)" fill="#6c63ff"/>
    <path id="Path_245" data-name="Path 245" d="M983.513,442.984c1.526,1.128,8,1.639,8,1.639s-2.381-6.037-3.91-7.168a3.446,3.446,0,1,0-4.073,5.527Z" transform="translate(-701.808 -319.093)" fill="#6c63ff"/>
    <path id="Path_248" data-name="Path 248" d="M1029.446,383.153c-1.695.855-8.146.263-8.146.263s3.368-5.549,5.063-6.4a3.446,3.446,0,1,1,3.1,6.138Z" transform="translate(-728.884 -277.844)" fill="#6c63ff" opacity="0.1"/>
    <path id="Path_249" data-name="Path 249" d="M1019.4,427.781c-1.526,1.128-8,1.639-8,1.639s2.381-6.037,3.91-7.168a3.446,3.446,0,0,1,4.073,5.527Z" transform="translate(-722.085 -308.902)" fill="#6c63ff" opacity="0.1"/>
    <path id="Path_251" data-name="Path 251" d="M987.816,392.092c1.695.855,8.146.263,8.146.263s-3.368-5.549-5.063-6.4a3.446,3.446,0,0,0-3.1,6.138Z" transform="translate(-704.733 -284.138)" fill="#6c63ff" opacity="0.1"/>
    <path id="Path_252" data-name="Path 252" d="M983.513,442.984c1.526,1.128,8,1.639,8,1.639s-2.381-6.037-3.91-7.168a3.446,3.446,0,1,0-4.073,5.527Z" transform="translate(-701.808 -319.093)" fill="#6c63ff" opacity="0.1"/>
    <ellipse id="Ellipse_20" data-name="Ellipse 20" cx="154.814" cy="24.92" rx="154.814" ry="24.92" transform="matrix(0.995, -0.097, 0.097, 0.995, 10.242, 150.696)" fill="#6c63ff" opacity="0.1"/>
    <path id="Path_253" data-name="Path 253" d="M407.541,375.577c5.793-11.874,4.6-31.2,3.979-37.762-.135-1.435-.241-2.259-.241-2.259s-5.107-.805-3.224-6.987c.921-3.026-2.35-4.7-5.921-5.617a41.705,41.705,0,0,0-7.782-1.1L344.884,318.8h0c-6.783-10.765-20.129-9.036-20.129-9.036s-11.905-1.238-20.346-1.366a22.718,22.718,0,0,0-4.186-2.923,13.785,13.785,0,0,0-2.838-1.294,8.042,8.042,0,0,0-7.106,1.332,3.779,3.779,0,0,0-1.156,1.344,3.681,3.681,0,0,0-.235.755,13.506,13.506,0,0,0-.313,1.344,2.315,2.315,0,0,1-.313.611c-.338.479-.921.84-1,1.419a.931.931,0,0,0,0,.1,1.052,1.052,0,0,0-.122.357,1.287,1.287,0,0,0,.16.743,1.188,1.188,0,0,0,.063.107,8.84,8.84,0,0,0-1.012,1.942,3.236,3.236,0,0,0-.335.21l-.094.069v.191l-.053.041-.116,3.086.066.05a9.136,9.136,0,0,0,4.248,7.131c.041.2.078.4.116.608a16.561,16.561,0,0,1,.232,3.064h-.053c-1.473-.627-3.991.295-6.156,1.369H256.161a87.89,87.89,0,0,1,12.162-12.494v-6.185c-4.781-.238-46.782,19.938-55.99,24.393l-.407.2L164.6,337.429a72.923,72.923,0,0,0-22.558,3.258A64.192,64.192,0,0,0,113.8,358.734a52.765,52.765,0,0,0-8.039,11.2l.053.426-.053.11.075.066,1.275,10.063.877,6.924c-6.1,3.941,1.8,5.52,1.8,5.52,7.519,6.448,19.616,6.181,19.616,6.181,2.954,4.032,11.554,3.493,11.554,3.493H186.1a109.38,109.38,0,0,1,2.82-12.281c1.927,13.876,12.877,24.506,26.092,24.506a24.4,24.4,0,0,0,2.932-.179,24.4,24.4,0,0,0,2.932.179c13.368,0,24.415-10.881,26.154-24.989h2.209a49.235,49.235,0,0,1-2.14,9.271c40.575-11.824,116.084-17.466,116.084-17.466q.47-4.465,1.031-8.613c3.111,7.723,10.163,13.115,18.372,13.115a18.539,18.539,0,0,0,2.231-.138,18.533,18.533,0,0,0,2.231.138c9.747,0,17.858-7.6,19.688-17.686a46.083,46.083,0,0,1,.414,5.367c-.348,1.711-.652,2.8-.692,2.958q.367-.67.7-1.372v.558c-.075.313-.128.489-.144.548l.138-.257v.41A12.233,12.233,0,0,1,407.541,375.577Z" transform="translate(-100.124 -227.95)" fill="url(#linear-gradient)"/>
    <rect id="Rectangle_207" data-name="Rectangle 207" width="93.019" height="37.524" transform="translate(209.665 104.962)" fill="#6f7d95"/>
    <path id="Path_254" data-name="Path 254" d="M593.73,276.659l13.212,29.6,26.164-1.585,1.056-12.156.793-14.271L597.959,275.6Z" transform="translate(-407.716 -189.27)" fill="#4b5c7a"/>
    <path id="Path_255" data-name="Path 255" d="M681.68,327.094s5.013-4.756,11.1-5.815,26.427,1.056,26.427,1.056l2.907,5.013-.545,2.387Z" transform="translate(-495.666 -239.705)" fill="#0099cf"/>
    <rect id="Rectangle_208" data-name="Rectangle 208" width="93.811" height="27.483" transform="translate(142.014 102.584)" fill="#4b5c7a"/>
    <path id="Path_256" data-name="Path 256" d="M660.919,351.235a14.781,14.781,0,0,0-2.463-13.732l-8.19-5.715a.381.381,0,0,1-.025.056,10.653,10.653,0,0,1-2.228-4.317c-.025-.1-.047-.2-.072-.313a8.817,8.817,0,0,0,1.942-1.989,4.8,4.8,0,0,0,2.156-3.446,17.187,17.187,0,0,0,2.033-4.114,7.3,7.3,0,0,0,.207-.717,3.762,3.762,0,0,0,.207-1.407,3.848,3.848,0,0,0-.52-1.5c-1.379-2.506-3.86-4.251-6.376-5.674a13.567,13.567,0,0,0-2.792-1.272,7.911,7.911,0,0,0-6.987,1.31,3.716,3.716,0,0,0-1.137,1.322,3.624,3.624,0,0,0-.232.743,13.269,13.269,0,0,0-.3,1.322,2.28,2.28,0,0,1-.294.6c-.335.47-.905.824-.981,1.4a.915.915,0,0,0,0,.1,1.035,1.035,0,0,0-.119.351,1.253,1.253,0,0,0,.157.73,1.177,1.177,0,0,0,.063.107,8.7,8.7,0,0,0-1,1.911,3.2,3.2,0,0,0-.332.207l-.091.066v.188l-.053.041-.116,3.036.063.05a8.982,8.982,0,0,0,4.176,7.015c.041.194.078.392.113.6a16.086,16.086,0,0,1,.226,3.312,1.122,1.122,0,0,1,0-.288c-2.265-1.024-7.206,1.808-9.2,3.061h0a3.774,3.774,0,0,0-.837.542l-.034.025h0c-1.369,1.109-4.073,4.192-6.219,12.115-2.976,11.056-2.666,13.563-4.834,16.126s-4.32,20.618-4.32,20.618l4.364,1.175.558-1.792c5.188,4.731,19.716,7.009,19.716,7.009l.445-1.382c2.228.8,5.953-.417,5.953-.417,5.445-1.924,7.485-6.8,11.435-13.243S660.919,351.235,660.919,351.235Zm-21.962,33.313,10.057-31.2c.912,4.844-3.111,12.472-3.468,17.46C645.323,374.022,641.588,380.4,638.956,384.548Z" transform="translate(-448.174 -229.954)" fill="url(#linear-gradient-2)"/>
    <path id="Path_257" data-name="Path 257" d="M723.194,343.79s1.751,6.67-3.446,7.832-1.773-3-1.773-3l5.013-4.884Z" transform="translate(-519.829 -255.333)" fill="#472727"/>
    <path id="Path_258" data-name="Path 258" d="M633.825,394.64s-3.866,1.566-6.708,12.118-2.56,12.933-4.606,15.386-4.142,19.666-4.142,19.666l4.092,1.1,3.562-11.5,9.8-30.39Z" transform="translate(-452.191 -290.286)" fill="#dde0e4"/>
    <path id="Path_259" data-name="Path 259" d="M633.825,394.64s-3.866,1.566-6.708,12.118-2.56,12.933-4.606,15.386-4.142,19.666-4.142,19.666l4.092,1.1,3.562-11.5,9.8-30.39Z" transform="translate(-452.191 -290.286)" opacity="0.05"/>
    <path id="Path_260" data-name="Path 260" d="M705.418,363.03s-16.185,8.227-13.816,2.86a13.354,13.354,0,0,0,.786-7.519,16.058,16.058,0,0,0-1.018-3.641s11-8.7,10.358-1.6a13.6,13.6,0,0,0,.313,4.568A9.163,9.163,0,0,0,705.418,363.03Z" transform="translate(-502.316 -259.866)" fill="#db8b8b"/>
    <path id="Path_261" data-name="Path 261" d="M702.024,357.72a8.459,8.459,0,0,1-7.519,1.566,8.554,8.554,0,0,1-2.146-.905,16.061,16.061,0,0,0-1.018-3.641s11-8.7,10.358-1.6a13.6,13.6,0,0,0,.326,4.577Z" transform="translate(-502.3 -259.873)" opacity="0.1"/>
    <circle id="Ellipse_21" data-name="Ellipse 21" cx="8.472" cy="8.472" r="8.472" transform="translate(184.154 96.79) rotate(-74.93)" fill="#db8b8b"/>
    <path id="Path_262" data-name="Path 262" d="M688.792,320.411a2.021,2.021,0,0,1-2.82-.742,1.216,1.216,0,0,1-.144-.7c.072-.545.611-.884.94-1.335.511-.73.414-1.729.783-2.541a3.571,3.571,0,0,1,1.071-1.253,7.366,7.366,0,0,1,6.564-1.278,12.514,12.514,0,0,1,2.613,1.2c2.356,1.344,4.678,2.989,5.953,5.379a3.671,3.671,0,0,1,.482,1.432,4.072,4.072,0,0,1-.282,1.6A16.653,16.653,0,0,1,702,326.145a3.058,3.058,0,0,0-1.015-.818,1.047,1.047,0,0,0-1.2.222c-.273.348-.439,1.012-.852.855-.269-.1-.266-.473-.254-.761a4.351,4.351,0,0,0-1.545-3.28,12.932,12.932,0,0,0-3.177-1.952,13.369,13.369,0,0,0-2.763-1.46C690.1,318.748,689.579,319.926,688.792,320.411Z" transform="translate(-498.512 -233.731)" opacity="0.1"/>
    <path id="Path_263" data-name="Path 263" d="M689.162,319.041a2.021,2.021,0,0,1-2.82-.743,1.216,1.216,0,0,1-.144-.7c.072-.545.611-.884.94-1.335.511-.73.414-1.729.783-2.541a3.571,3.571,0,0,1,1.071-1.253,7.366,7.366,0,0,1,6.564-1.278,12.512,12.512,0,0,1,2.613,1.2c2.356,1.344,4.678,2.989,5.953,5.379a3.672,3.672,0,0,1,.482,1.432,4.073,4.073,0,0,1-.282,1.6,16.655,16.655,0,0,1-1.952,3.97,3.057,3.057,0,0,0-1.015-.818,1.046,1.046,0,0,0-1.2.222c-.273.348-.439,1.012-.852.855-.269-.1-.266-.473-.254-.761a4.351,4.351,0,0,0-1.545-3.28,12.931,12.931,0,0,0-3.177-1.952,13.369,13.369,0,0,0-2.763-1.46C690.466,317.375,689.949,318.556,689.162,319.041Z" transform="translate(-498.766 -232.79)" fill="#472727"/>
    <path id="Path_264" data-name="Path 264" d="M653.809,387.69s6.7-1.313,6.993-2.387l7.663,5.411a14.164,14.164,0,0,1,2.253,13.074s-1.921,16.57-5.655,22.72-5.881,14.117-11,15.978c0,0-4.919-3.171-6.542-3.133,0,0,8.331-12.071,8.688-16.824s4.164-12.04,3.33-16.652l-11.279,35.058s-18.171-2.82-20.014-8.851a8.083,8.083,0,0,0,1.275-4.737c-.291-2.384,6.855-20.321,6.855-20.321l3.421-18.7s6.767-4.728,9.462-3.5C649.25,384.8,648.762,387.139,653.809,387.69Z" transform="translate(-458.976 -283.405)" fill="#dde0e4"/>
    <g id="Group_233-2" data-name="Group 233" transform="translate(186.007 87.727)" opacity="0.1">
      <path id="Path_265" data-name="Path 265" d="M692.926,343.583h0c-1.654-2.256-4.809-.4-5.326-.081l-.811-.081c-.708-.771-2.879-2.82-4.919-1.313l-.088.066-.122,2.892.088.069a6.04,6.04,0,0,0,1.971,1.009,2.973,2.973,0,0,0,1.391.069,2.4,2.4,0,0,0,1.6-1.253l.423.028.313-.06a2.384,2.384,0,0,0,1.128,1.61c1.4.793,3.446,0,3.531-.016l.107-.041.752-2.8Zm-1.062,2.544a4.189,4.189,0,0,1-3.045,0,2.024,2.024,0,0,1-.94-1.523l-.038-.229-.686.141-.689-.025-.066.132a2.033,2.033,0,0,1-1.375,1.153,4.232,4.232,0,0,1-2.9-.921l.1-2.444c1.773-1.194,3.728.743,4.292,1.375l.06.066,1.144.113.069-.047c.031-.019,2.873-1.927,4.493-.392a2.093,2.093,0,0,1,.222.241Z" transform="translate(-681.66 -341.569)"/>
      <path id="Path_266" data-name="Path 266" d="M721.31,349.337l-5.326-.442-.439-.085.2-.739a2.1,2.1,0,0,0-.222-.241l.645.063,4.358.426Z" transform="translate(-704.912 -345.868)"/>
    </g>
    <path id="Path_267" data-name="Path 267" d="M693.106,342.943h0c-1.654-2.256-4.809-.4-5.326-.081l-.811-.081c-.708-.771-2.879-2.82-4.919-1.313l-.088.066-.122,2.892.088.069A6.04,6.04,0,0,0,683.9,345.5a2.973,2.973,0,0,0,1.391.069,2.4,2.4,0,0,0,1.6-1.253l.423.028.313-.06a2.384,2.384,0,0,0,1.128,1.61c1.4.793,3.446,0,3.531-.016l.107-.041.752-2.8Zm-1.062,2.544a4.189,4.189,0,0,1-3.045,0,2.024,2.024,0,0,1-.94-1.523l-.038-.229-.686.141-.68-.044-.066.132a2.033,2.033,0,0,1-1.369,1.165,4.233,4.233,0,0,1-2.9-.921l.1-2.444c1.773-1.194,3.728.743,4.292,1.375l.06.066,1.144.113.069-.047c.031-.019,2.873-1.927,4.493-.392a2.1,2.1,0,0,1,.222.241Z" transform="translate(-495.776 -253.402)" fill="#472727"/>
    <path id="Path_268" data-name="Path 268" d="M721.511,348.7l-5.307-.442-.439-.085.2-.739a2.1,2.1,0,0,0-.222-.241l.645.063,4.358.426Z" transform="translate(-519.055 -257.702)" fill="#472727"/>
    <rect id="Rectangle_209" data-name="Rectangle 209" width="93.019" height="37.524" transform="translate(73.041 123.989)" fill="#6f7d95"/>
    <ellipse id="Ellipse_22" data-name="Ellipse 22" cx="25.957" cy="28.407" rx="25.957" ry="28.407" transform="translate(89.655 129.274)" fill="#4b5c7a"/>
    <ellipse id="Ellipse_23" data-name="Ellipse 23" cx="25.957" cy="28.407" rx="25.957" ry="28.407" transform="translate(89.655 129.274)" opacity="0.05"/>
    <ellipse id="Ellipse_24" data-name="Ellipse 24" cx="25.957" cy="28.407" rx="25.957" ry="28.407" transform="translate(95.423 129.274)" fill="#4b5c7a"/>
    <circle id="Ellipse_25" data-name="Ellipse 25" cx="11.536" cy="11.536" r="11.536" transform="translate(109.268 146.289)" opacity="0.05"/>
    <circle id="Ellipse_26" data-name="Ellipse 26" cx="3.462" cy="3.462" r="3.462" transform="translate(117.342 154.363)" fill="none" stroke="#6f7d95" stroke-miterlimit="10" stroke-width="2"/>
    <circle id="Ellipse_27" data-name="Ellipse 27" cx="0.865" cy="0.865" r="0.865" transform="translate(119.939 150.904)" fill="#6f7d95"/>
    <circle id="Ellipse_28" data-name="Ellipse 28" cx="0.865" cy="0.865" r="0.865" transform="matrix(0.766, -0.643, 0.643, 0.766, 124.317, 153.331)" fill="#6f7d95"/>
    <circle id="Ellipse_29" data-name="Ellipse 29" cx="0.865" cy="0.865" r="0.865" transform="translate(126.303 158.839) rotate(-80)" fill="#6f7d95"/>
    <circle id="Ellipse_30" data-name="Ellipse 30" cx="0.865" cy="0.865" r="0.865" transform="translate(123.652 162.197) rotate(-30)" fill="#6f7d95"/>
    <circle id="Ellipse_31" data-name="Ellipse 31" cx="0.865" cy="0.865" r="0.865" transform="matrix(0.342, -0.94, 0.94, 0.342, 118.79, 163.951)" fill="#6f7d95"/>
    <circle id="Ellipse_32" data-name="Ellipse 32" cx="0.865" cy="0.865" r="0.865" transform="matrix(0.94, -0.342, 0.342, 0.94, 114.912, 159.73)" fill="#6f7d95"/>
    <circle id="Ellipse_33" data-name="Ellipse 33" cx="0.865" cy="0.865" r="0.865" transform="translate(114.791 155.541) rotate(-60)" fill="#6f7d95"/>
    <path id="Path_269" data-name="Path 269" d="M1018.714,438.347a74.7,74.7,0,0,1-3.352,12.823q.025-.627.031-1.238v-1.566a42.585,42.585,0,0,0-15.439-32.27A33.326,33.326,0,0,0,995,412.6h16.119s6.341,12.949,7.663,19.29A19.332,19.332,0,0,1,1018.714,438.347Z" transform="translate(-710.823 -302.619)" fill="#044477"/>
    <path id="Path_270" data-name="Path 270" d="M1018.714,438.347a74.7,74.7,0,0,1-3.352,12.823q.025-.627.031-1.238v-1.566a42.585,42.585,0,0,0-15.439-32.27A33.326,33.326,0,0,0,995,412.6h16.119s6.341,12.949,7.663,19.29A19.332,19.332,0,0,1,1018.714,438.347Z" transform="translate(-696.231 -306.355)" fill="#00bcff" opacity="0.05"/>
    <ellipse id="Ellipse_34" data-name="Ellipse 34" cx="19.741" cy="21.605" rx="19.741" ry="21.605" transform="translate(260.667 114.671)" fill="#4b5c7a"/>
    <ellipse id="Ellipse_35" data-name="Ellipse 35" cx="19.741" cy="21.605" rx="19.741" ry="21.605" transform="translate(260.667 114.671)" fill="#333" opacity="0.05"/>
    <ellipse id="Ellipse_36" data-name="Ellipse 36" cx="19.741" cy="21.605" rx="19.741" ry="21.605" transform="translate(265.053 114.671)" fill="#333"/>
    <circle id="Ellipse_37" data-name="Ellipse 37" cx="8.772" cy="8.772" r="8.772" transform="translate(275.583 127.613)" opacity="0.05"/>
    <circle id="Ellipse_38" data-name="Ellipse 38" cx="2.632" cy="2.632" r="2.632" transform="translate(281.724 133.754)" fill="none" stroke="#6f7d95" stroke-miterlimit="10" stroke-width="2"/>
    <circle id="Ellipse_39" data-name="Ellipse 39" cx="0.658" cy="0.658" r="0.658" transform="translate(283.697 131.122)" fill="#6f7d95"/>
    <circle id="Ellipse_40" data-name="Ellipse 40" cx="0.658" cy="0.658" r="0.658" transform="matrix(0.766, -0.643, 0.643, 0.766, 287.028, 132.967)" fill="#6f7d95"/>
    <circle id="Ellipse_41" data-name="Ellipse 41" cx="0.658" cy="0.658" r="0.658" transform="translate(288.538 137.16) rotate(-80)" fill="#6f7d95"/>
    <circle id="Ellipse_42" data-name="Ellipse 42" cx="0.658" cy="0.658" r="0.658" transform="translate(286.524 139.713) rotate(-30)" fill="#6f7d95"/>
    <circle id="Ellipse_43" data-name="Ellipse 43" cx="0.658" cy="0.658" r="0.658" transform="matrix(0.342, -0.94, 0.94, 0.342, 282.825, 141.047)" fill="#6f7d95"/>
    <circle id="Ellipse_44" data-name="Ellipse 44" cx="0.658" cy="0.658" r="0.658" transform="matrix(0.94, -0.342, 0.342, 0.94, 279.874, 137.832)" fill="#6f7d95"/>
    <circle id="Ellipse_45" data-name="Ellipse 45" cx="0.658" cy="0.658" r="0.658" transform="translate(279.786 134.647) rotate(-60)" fill="#6f7d95"/>
    <path id="Path_271" data-name="Path 271" d="M116.387,533,114,514.24h28.275l14.534,12.949-7.134,16.649S120.893,539.082,116.387,533Z" transform="translate(-105.84 -372.415)" fill="#0099cf"/>
    <path id="Path_272" data-name="Path 272" d="M156.853,527.2l-7.134,16.649s-28.792-4.756-33.3-10.834l-.1-.818-2.193-17.35-.022-.172-.053-.42h28.275Z" transform="translate(-93.304 -370.693)" fill="#00bcff" opacity="0.05"/>
    <path id="Path_273" data-name="Path 273" d="M499.811,330.365v6.078s-14.612,11.905-18.09,23.137a14.155,14.155,0,0,0-.674,5.668C482.369,377.667,443,355.2,443,355.2l1.751-.852C453.8,349.987,495.108,330.127,499.811,330.365Z" transform="translate(-331.764 -246.147)" fill="#333"/>
    <path id="Path_274" data-name="Path 274" d="M730.026,363.656s13.685-6.723,15.881-11.7c.294-.667.573-1.341.9-2,1.357-2.729,4.208-9.13,2.773-12.2-1.848-3.963,4.493.529,4.493.529l-3.7,18.757-8.985,5.013-11.627,1.6" transform="translate(-528.683 -250.104)" fill="#0099cf"/>
    <path id="Path_275" data-name="Path 275" d="M730.026,363.656s13.685-6.723,15.881-11.7c.294-.667.573-1.341.9-2,1.357-2.729,4.208-9.13,2.773-12.2-1.848-3.963,4.493.529,4.493.529l-3.7,18.757-8.985,5.013-11.627,1.6" transform="translate(-527.305 -250.104)" fill="#0099cf" opacity="0.05"/>
    <path id="Path_276" data-name="Path 276" d="M156.832,527.2,149.7,543.851s-28.792-4.756-33.3-10.834l-.1-.818c.116-.078.238-.16.367-.238,0,0,8.719,6.871,28.542,8.459,0,0,11.905-9.515-7.4-20.082,0,0-16.793.526-23.71-5.486l-.075-.063.053-.11q.069-.135.222-.42h28Z" transform="translate(-105.854 -372.429)" opacity="0.05"/>
    <path id="Path_277" data-name="Path 277" d="M481.047,417.823C482.369,430.246,443,407.782,443,407.782l1.751-.852c1.159,1.234,5.787,5.4,15.038,4.947,5.953-.291,14.991-.025,21.947.279A14.155,14.155,0,0,0,481.047,417.823Z" transform="translate(-331.764 -298.725)" opacity="0.05"/>
    <path id="Path_278" data-name="Path 278" d="M414.119,457.31v37.524H396.837c1.14-8.729.482-21.452-10.6-28.745a26.812,26.812,0,0,0-27.978-.833c-7.265,4.148-15.389,12.582-20.552,29.579H321.1V457.31Z" transform="translate(-248.056 -333.321)" opacity="0.05"/>
    <path id="Path_279" data-name="Path 279" d="M1018.714,438.347a43.17,43.17,0,0,1-3.318,11.592q-.313.692-.683,1.35c.041-.154.338-1.225.683-2.911,1.679-8.208,4.552-30.923-14.7-32.22-.251-.016-.5-.031-.746-.041A33.336,33.336,0,0,0,995,412.6h16.119s6.341,12.949,7.663,19.29A19.332,19.332,0,0,1,1018.714,438.347Z" transform="translate(-710.823 -302.619)" opacity="0.05"/>
    <path id="Path_280" data-name="Path 280" d="M410.1,407.88c.251-.905,9.18-33.564-14.014-35.127-23.519-1.585-26.427,16.119-29.068,40.168,0,0-74.252,5.549-114.16,17.178,0,0,9.581-26.254-8.459-38.129a26.812,26.812,0,0,0-27.978-.833c-8.9,5.082-19.089,16.6-23.548,42.4h-44.4s-8.459.529-11.363-3.446c0,0-11.905.263-19.29-6.078,0,0-7.926-1.585-1.585-5.549,0,0,8.985,6.871,28.8,8.459,0,0,11.905-9.515-7.4-20.082,0,0-16.918.529-23.783-5.549a51.838,51.838,0,0,1,7.908-11.016,63.13,63.13,0,0,1,27.768-17.755,71.915,71.915,0,0,1,22.2-3.2l46.641-1.454s4.505,5.815,15.327,5.285,31.975.793,31.975.793h.21L309.4,371.97a27.688,27.688,0,0,0,3.7-.783c6.31-1.714,18.278-6.911,16.119-21.427l68.443,4.23a41.015,41.015,0,0,1,7.654,1.081c3.515.9,6.73,2.55,5.824,5.527-1.848,6.078,3.171,6.871,3.171,6.871s.107.811.238,2.221C415.178,376.337,416.409,396.326,410.1,407.88Z" transform="translate(-105.683 -259.467)" fill="#00bcff"/>
    <path id="Path_281" data-name="Path 281" d="M287.838,442.55s-28.542.263-47.308,16.918H251.1s29.6-7.663,36.731-13.741Z" transform="translate(-192.728 -323.186)" opacity="0.05"/>
    <path id="Path_282" data-name="Path 282" d="M286.988,441.7s-28.542.263-47.308,16.918h10.571s29.6-7.663,36.731-13.741Z" transform="translate(-192.145 -322.602)" fill="#fff"/>
    <path id="Path_283" data-name="Path 283" d="M167.885,423.25v7.1l-24.043,11.1L140.12,441A63.13,63.13,0,0,1,167.885,423.25Z" transform="translate(-123.777 -309.932)" opacity="0.05"/>
    <path id="Path_284" data-name="Path 284" d="M167.028,422.41v7.1l-24.046,11.1-3.722-.448A63.13,63.13,0,0,1,167.028,422.41Z" transform="translate(-123.186 -309.356)" fill="#fff"/>
    <path id="Path_285" data-name="Path 285" d="M305.421,525.21a33.721,33.721,0,0,0-14.271,25.377h7.4s2.907-19.027,11.363-25.377Z" transform="translate(-227.489 -379.948)" fill="none"/>
    <path id="Path_286" data-name="Path 286" d="M305.421,525.21a33.721,33.721,0,0,0-14.271,25.377h7.4s2.907-19.027,11.363-25.377Z" transform="translate(-227.489 -379.948)" opacity="0.05"/>
    <path id="Path_287" data-name="Path 287" d="M669.8,440.6l-67.124,7.926s-4.439-28.26-3.619-39.253l43.523-1.971a27.693,27.693,0,0,0,3.7-.774v2.622l32.768-7.926S684.6,409.41,669.8,440.6Z" transform="translate(-438.86 -294.804)" fill="none"/>
    <path id="Path_288" data-name="Path 288" d="M669.8,440.6l-67.124,7.926s-4.439-28.26-3.619-39.253l43.523-1.971a27.693,27.693,0,0,0,3.7-.774v2.622l32.768-7.926S684.6,409.41,669.8,440.6Z" transform="translate(-438.86 -294.804)" fill="#0099cf" opacity="0.05"/>
    <path id="Path_289" data-name="Path 289" d="M801.46,325.08s14.271-1.848,20.612,10.308l-20.408-.786Z" transform="translate(-577.919 -242.45)" fill="#0099cf"/>
    <path id="Path_290" data-name="Path 290" d="M863.633,364.181c-.561,1.758-.138,3.691,3.111,5.028a5.083,5.083,0,0,0,6.8-2.948c.539-1.617.169-3.446-2.745-4.934A4.933,4.933,0,0,0,863.633,364.181Z" transform="translate(-620.47 -266.982)" fill="none"/>
    <path id="Path_291" data-name="Path 291" d="M863.633,364.181c-.561,1.758-.138,3.691,3.111,5.028a5.083,5.083,0,0,0,6.8-2.948c.539-1.617.169-3.446-2.745-4.934A4.933,4.933,0,0,0,863.633,364.181Z" transform="translate(-620.47 -266.982)" fill="#044477"/>
    <path id="Path_292" data-name="Path 292" d="M115.63,526.88s16.937,8.772,29.093,5.451" transform="translate(-106.959 -381.095)" fill="none" stroke="#00bcff" stroke-miterlimit="10" stroke-width="1"/>
    <path id="Path_293" data-name="Path 293" d="M117.54,542s10.944,8.44,33.062,6.479" transform="translate(-108.271 -391.478)" fill="none" stroke="#00bcff" stroke-miterlimit="10" stroke-width="1"/>
    <path id="Path_294" data-name="Path 294" d="M119.15,554.69s10.856,9.421,33.163,6.435" transform="translate(-109.376 -400.192)" fill="none" stroke="#00bcff" stroke-miterlimit="10" stroke-width="1"/>
    <path id="Path_295" data-name="Path 295" d="M827.627,353.67s-8.829,7.623-16.887,11.069C810.74,364.739,822.977,366.916,827.627,353.67Z" transform="translate(-584.292 -262.152)" opacity="0.05"/>
    <path id="Path_296" data-name="Path 296" d="M566.1,422.114s41.894,3.957,57.747.257c0,0,.846.561-4.2-1.7Z" transform="translate(-416.297 -308.161)" opacity="0.1"/>
    <path id="Path_297" data-name="Path 297" d="M1053.583,381.322c-2.61-1.714-6.748-5.27-6.184-9.227.282-1.983-1.122-3.838-3.048-5.395,3.515.9,6.73,2.55,5.824,5.527-1.849,6.078,3.171,6.871,3.171,6.871S1053.448,379.912,1053.583,381.322Z" transform="translate(-744.712 -271.1)" opacity="0.05"/>
    <path id="Path_298" data-name="Path 298" d="M288.568,305.651a31.335,31.335,0,0,0-.078-3.133,5.344,5.344,0,0,0-.05-.558,11.26,11.26,0,0,1,.94.783l-.517-27.207-2.851-14.252c0-10.107-5.442-12.955-5.442-12.955s-2.851-1.3-3.628-3.108-7.663-5.639-7.666-5.639a19.478,19.478,0,0,1-.063-1.983c0-.172,0-.351.016-.529a8.553,8.553,0,0,0,2.967-10.865c.382,0,.692-.16.836-.727a8.151,8.151,0,0,0-1.024-5.934,5.826,5.826,0,0,0-.749-.83,12.85,12.85,0,0,0-1.018-.918,4.654,4.654,0,0,0-2.983-1.454,4.465,4.465,0,0,0-1.764.627q-4.132,2.174-8.243,4.386a7.69,7.69,0,0,0-2.763,2.109,8.084,8.084,0,0,0-1.191,3.481,8.534,8.534,0,0,0-.116,2.547,3.293,3.293,0,0,0,1,2.03,2.237,2.237,0,0,0,.385.367,16.95,16.95,0,0,0,1.858.837,8.553,8.553,0,0,0,2.152,3.374c0,.16-.022.313-.034.489-.034.448-.088.94-.157,1.438h0s-1.914-.05-4.765,3.835-9.07,4.4-9.07,4.4-2.331-1.037-4.922,10.624-3.368,19.425-2.074,20.728a7.068,7.068,0,0,0,1.836,1.147,22.5,22.5,0,0,0,7,2.193.627.627,0,0,0,.154.248l.185,2.259h0c.157,4.768.338,14.333-.627,16.454a4.41,4.41,0,0,0,.26,4.665l.313-.022a2.383,2.383,0,0,0,.194.282l1.253-.085c-.091,5.326-.335,12.714-.981,14.337-1.037,2.591,0,16.843,0,16.843l-1.814,25.653s-.993,13.39-.063,14.941c-.508,2.785-1.419,8.093-1.231,9.415.26,1.814,6.219,4.4,6.219,4.4s7,1.566,10.364,1.037a2.6,2.6,0,0,0,2.466-2.506,27.058,27.058,0,0,0,7.121.429c3.368-.517,2.851-4.4,1.037-4.145s-3.888-3.387-5.429-5.2a12.474,12.474,0,0,1-1.88-3.951,1.447,1.447,0,0,0,.852-.454c.777-1.3,2.074-13.215,2.074-13.215l3.368-20.728s1.814-10.107,3.368-12.438c1.175-1.761,2.644-14.9,3.293-21.229h.075l.069-.222.974-3.146c.52.918,1.83,1.372,3.355,1.566-.163.664-.3,1.206-.376,1.516-.388,1.566,5.276,4.145,6.642,2.851.573-.542.871-2.506.94-4.656h.047Zm-34.043,70.662c-.088.5-.175,1.031-.263,1.566-.2-.627-.354-1.191-.461-1.607C254.058,376.281,254.3,376.294,254.525,376.313Z" transform="translate(-190.262 -167.846)" fill="url(#linear-gradient-3)"/>
    <path id="Path_299" data-name="Path 299" d="M300.531,708.062s1,4.493,2.506,6.238,3.493,5.238,5.238,4.991,2.246,3.493-1,3.991-9.982-1-9.982-1-5.74-2.506-5.987-4.242,1.5-10.731,1.5-10.731Z" transform="translate(-227.581 -504.997)" fill="#53526b"/>
    <path id="Path_300" data-name="Path 300" d="M300.531,708.062s1,4.493,2.506,6.238,3.493,5.238,5.238,4.991,2.246,3.493-1,3.991-9.982-1-9.982-1-5.74-2.506-5.987-4.242,1.5-10.731,1.5-10.731Z" transform="translate(-227.581 -504.997)" opacity="0.05"/>
    <path id="Path_301" data-name="Path 301" d="M271.061,714.439s1,4.493,2.506,6.238,3.493,5.238,5.238,4.991,2.246,3.493-1,3.991-9.982-1-9.982-1-5.74-2.506-5.987-4.242,1.5-10.731,1.5-10.731Z" transform="translate(-207.343 -509.378)" fill="#53526b"/>
    <path id="Path_302" data-name="Path 302" d="M315.638,497.86s-2,21.458-3.493,23.7-3.243,11.977-3.243,11.977l-3.243,19.96s-1.253,11.479-2,12.726-10,.711-10,.711l5.746-66.084Z" transform="translate(-229.213 -361.167)" fill="#5f5d7e"/>
    <path id="Path_303" data-name="Path 303" d="M315.638,497.86s-2,21.458-3.493,23.7-3.243,11.977-3.243,11.977l-3.243,19.96s-1.253,11.479-2,12.726-10,.711-10,.711l5.746-66.084Z" transform="translate(-229.213 -361.167)" opacity="0.05"/>
    <path id="Path_304" data-name="Path 304" d="M299.531,465.21l-.652,2.071-3.525,11.188-.069.213h-.019c-.473.107-10.461,2.4-12.617,3.108a3.048,3.048,0,0,0-.341.128c-1,.5-2.246,18.463-2.246,18.463s-.749,16.968-1.253,18.215-2.506,26.944-3.744,26.2-10.229,0-10.229,0c-1-1,0-14.471,0-14.471l1.745-24.7s-1-13.723,0-16.22,1-19.211,1-19.211l20.437-3.164,1.974-.313Z" transform="translate(-209.114 -338.746)" fill="#5f5d7e"/>
    <path id="Path_305" data-name="Path 305" d="M338.432,470.323l-3.525,11.188-.085.219c-.473.107-10.461,2.4-12.617,3.108h-.216l5.58-14.772.16-.426,1.814.116Z" transform="translate(-248.667 -341.788)" opacity="0.02"/>
    <path id="Path_306" data-name="Path 306" d="M294.074,305.93s9.233,9.982,14.973,1.745l5.489,3.744-1,5.74,3.243,43.417s-8.484-.251-14.471,1.745a9.286,9.286,0,0,1-9.731-2.246l1-38.176-2.246-11.727Z" transform="translate(-227.613 -229.369)" opacity="0.1"/>
    <path id="Path_307" data-name="Path 307" d="M294.081,303.54s9.233,9.982,14.973,1.745l5.489,3.744-1,5.74,3.246,43.43s-8.484-.251-14.471,1.745a9.286,9.286,0,0,1-9.731-2.246l1-38.176-2.246-11.727Z" transform="translate(-227.619 -227.728)" fill="#53526b"/>
    <g id="TESLA" transform="translate(67.834 119.233)">
      <g id="g8" transform="translate(16.984 0.003)">
        <path id="polyline10" d="M270.96,383.91v1.57h.5v-1.046H273.3v1.046h.5v-1.566l-2.842,0" transform="translate(-270.888 -382.882)" fill="#e82127"/>
        <path id="path12" d="M359.2,442.66h1.936a.714.714,0,0,0,.526-.52H358.68a.717.717,0,0,0,.526.52" transform="translate(-358.68 -442.14)" fill="#e82127"/>
      </g>
      <g id="g14" transform="translate(13.209 0.003)">
        <path id="path16" d="M348.955,444.737a.721.721,0,0,0,.442-.511h-2.259V442.14h-.508v2.6h2.322" transform="translate(-346.63 -442.14)" fill="#e82127"/>
      </g>
      <g id="g18" transform="translate(8.791 0.003)">
        <path id="path20" d="M333.188,442.651h1.789a.783.783,0,0,0,.551-.511h-2.851v1.523H335v.539h-1.823a1.018,1.018,0,0,0-.649.526H335.5v-1.567h-2.322v-.514" transform="translate(-332.53 -442.14)" fill="#e82127"/>
      </g>
      <g id="g22" transform="translate(4.512)">
        <path id="path24" d="M319.393,442.65h1.936a.714.714,0,0,0,.526-.52H318.87a.717.717,0,0,0,.526.52" transform="translate(-318.87 -442.13)" fill="#e82127"/>
        <path id="path26" d="M319.393,445.92h1.936a.711.711,0,0,0,.526-.52H318.87a.717.717,0,0,0,.526.52" transform="translate(-318.87 -444.375)" fill="#e82127"/>
        <path id="path28" d="M319.393,449.29h1.936a.714.714,0,0,0,.526-.52H318.87a.717.717,0,0,0,.526.52" transform="translate(-318.87 -446.69)" fill="#e82127"/>
      </g>
      <g id="g30" transform="translate(0 0.006)">
        <path id="path32" d="M304.47,442.15a.724.724,0,0,0,.523.517h.815l.041.016v2.055h.508v-2.055l.047-.016h.815a.733.733,0,0,0,.523-.517H304.47" transform="translate(-304.47 -442.15)" fill="#e82127"/>
      </g>
    </g>
    <g id="T" transform="translate(68.733 96.004)">
      <path id="path35" d="M318.142,389.952l2.541-14.3c2.422,0,3.186.266,3.3,1.35a5.692,5.692,0,0,0,2.444-1.836,17.965,17.965,0,0,0-6.413-1.551l-1.88,2.284h0l-1.88-2.284a17.962,17.962,0,0,0-6.413,1.551,5.692,5.692,0,0,0,2.444,1.836c.11-1.084.874-1.35,3.28-1.353l2.563,14.3" transform="translate(-309.057 -371.856)" fill="#e82127"/>
      <path id="path37" d="M316.426,369.092a20.944,20.944,0,0,1,8.575,1.72,6.964,6.964,0,0,0,.511-1.053,24.2,24.2,0,0,0-18.171,0,8.792,8.792,0,0,0,.52,1.053,20.944,20.944,0,0,1,8.575-1.72h0" transform="translate(-307.34 -367.989)" fill="#e82127"/>
    </g>
    <path id="Path_308" data-name="Path 308" d="M361.42,468.39s0,6.488,1.5,9.233,10.229,1.253,10.229,1.253l-1.745-9.233Z" transform="translate(-275.743 -340.93)" fill="#d39999"/>
    <path id="Path_309" data-name="Path 309" d="M381.764,490.6c-1.316,1.253-6.77-1.253-6.394-2.745.263-1.056,1.184-4.834,1.707-6.977l.363-1.507s3.2-1,4.324,0c.41.363.7,1.8.833,3.525C382.829,485.9,382.6,489.8,381.764,490.6Z" transform="translate(-285.31 -348.163)" fill="#fdc2cc"/>
    <path id="Path_310" data-name="Path 310" d="M315.822,280.747l-8.732,6.736s-12.974-.749-9.731-6.987a23.26,23.26,0,0,0,2.506-8.816,18.435,18.435,0,0,0,0-3.412s11.977-10.965,10.48,1.5a28.273,28.273,0,0,0-.207,2.882C309.973,282,315.822,280.747,315.822,280.747Z" transform="translate(-231.396 -200.445)" fill="#fdc2cc"/>
    <path id="Path_311" data-name="Path 311" d="M316.947,269.76a28.281,28.281,0,0,0-.207,2.882,8.177,8.177,0,0,1-4.533,1.36c-2.234,0-3.879-2.174-5.364-3.619.166-2.071-.373-2.121-.373-2.121S318.444,257.282,316.947,269.76Z" transform="translate(-238.009 -200.436)" opacity="0.1"/>
    <circle id="Ellipse_46" data-name="Ellipse 46" cx="8.234" cy="8.234" r="8.234" transform="translate(65.964 56.598)" fill="#fdc2cc"/>
    <path id="Path_312" data-name="Path 312" d="M261.805,293.58s-1.372.125-4.117,3.866-8.75,4.242-8.75,4.242-2.246-1-4.74,10.229-3.243,18.713-2,19.96,6.238,3,8.732,3c0,0,.749,15.718-.5,18.463a4.253,4.253,0,0,0,.251,4.493l10.965-.749a26.1,26.1,0,0,0,4.493-12.974c.749-8.233,3.243-31.69,2-34.435s-6.736-9.731-6.488-10.48A45.855,45.855,0,0,0,261.805,293.58Z" transform="translate(-193.47 -220.888)" opacity="0.1"/>
    <path id="Path_313" data-name="Path 313" d="M260.744,293.34s-1.845-.05-4.59,3.694-8.732,4.242-8.732,4.242-2.246-1-4.74,10.229-3.243,18.713-1.989,19.951,6.238,3,8.732,3c0,0,.749,15.718-.5,18.463a4.253,4.253,0,0,0,.251,4.493l10.965-.749a26.1,26.1,0,0,0,4.493-12.974c.749-8.234,3.243-31.69,2-34.435s-6.736-9.731-6.488-10.48S260.744,293.34,260.744,293.34Z" transform="translate(-192.43 -220.723)" fill="#d39999"/>
    <path id="Path_314" data-name="Path 314" d="M285,378.523s12.485-14.318,10.73-4.493c-1.253,6.987-5.987,10.73-8.233,11.479S285,378.523,285,378.523Z" transform="translate(-223.266 -273.768)" fill="#fdc2cc"/>
    <path id="Path_315" data-name="Path 315" d="M386.38,482.891c-1.194-.912-3.446-2.331-5.52-2.018l.363-1.507s3.2-1,4.324,0C385.961,479.73,386.246,481.162,386.38,482.891Z" transform="translate(-289.093 -348.163)" opacity="0.1"/>
    <path id="Path_316" data-name="Path 316" d="M336.937,298.36s6.363,4.117,7.112,5.865,3.493,3,3.493,3,5.238,2.745,5.238,12.476l2.745,13.722-12.482,17.463s-1.5-17.466-2.246-21.708-1.745-12.219-1.745-12.219-3.744-4.74-3.243-5.987S336.937,298.36,336.937,298.36Z" transform="translate(-258.124 -224.17)" opacity="0.1"/>
    <path id="Path_317" data-name="Path 317" d="M337.478,298.12s6.636,3.694,7.381,5.439,3.5,2.983,3.5,2.983,5.238,2.745,5.238,12.476l2.745,13.723.5,26.2s-4.493-4.242-7.735-2.246-5.238-6.488-5.238-6.488-1.5-17.466-2.246-21.709-1.745-12.219-1.745-12.219-3.744-4.721-3.243-5.975S337.478,298.12,337.478,298.12Z" transform="translate(-258.688 -224.006)" fill="#d39999"/>
    <path id="Path_318" data-name="Path 318" d="M308.563,230.314a8.147,8.147,0,0,0-1.454-1.435,4.454,4.454,0,0,0-2.873-1.4,4.3,4.3,0,0,0-1.7.608q-3.979,2.1-7.936,4.236a7.379,7.379,0,0,0-2.66,2.03,7.827,7.827,0,0,0-1.147,3.352,8.217,8.217,0,0,0-.113,2.45,3.074,3.074,0,0,0,1.084,2.058c.711.517,1.686.52,2.281,1.2a6.668,6.668,0,0,1,.739,1.416c.244.476.667.94,1.15.855a1.207,1.207,0,0,0,.843-1.112,6.752,6.752,0,0,0-.091-1.566,3.709,3.709,0,0,1,.57-2.635c.376-.476.915-.764,1.278-1.253.871-1.178.473-3.133,1.429-4.239a2.265,2.265,0,0,1,2.193-.627,9.376,9.376,0,0,1,2.193.94,16.291,16.291,0,0,0,3,1.159c.871.238,1.88.808,2.177-.351A7.8,7.8,0,0,0,308.563,230.314Z" transform="translate(-227.138 -175.496)" opacity="0.1"/>
    <path id="Path_319" data-name="Path 319" d="M307.763,229.514a8.146,8.146,0,0,0-1.454-1.435,4.454,4.454,0,0,0-2.873-1.4,4.3,4.3,0,0,0-1.7.608c-2.651,1.4-4.853.075-7.936,4.236-.658.89-1.98,1.084-2.66,2.03A7.826,7.826,0,0,0,290,236.908a8.217,8.217,0,0,0-.113,2.45,3.073,3.073,0,0,0,1.084,2.058c.711.517,1.686.52,2.281,1.2a6.668,6.668,0,0,1,.739,1.416c.244.476.667.94,1.15.855a1.207,1.207,0,0,0,.843-1.112,6.752,6.752,0,0,0-.091-1.567,3.709,3.709,0,0,1,.57-2.635c.376-.476.915-.764,1.278-1.253.871-1.178.473-3.133,1.429-4.239a2.265,2.265,0,0,1,2.193-.627,9.376,9.376,0,0,1,2.193.94,16.292,16.292,0,0,0,3,1.159c.871.238,1.88.808,2.177-.351A7.709,7.709,0,0,0,307.763,229.514Z" transform="translate(-226.589 -174.946)" fill="#865a61"/>
    <path id="Path_320" data-name="Path 320" d="M259.523,353.71s-.251,9.233-1.5,10.48.749,2.745.749,2.745l4.991-1.253s-1.253,8.234,3.991,7.237c0,0-3.493,3.243-6.987,3.744s-3.252-.746-3.252-.746l-5.238-6.238Z" transform="translate(-200.797 -262.179)" fill="#d39999"/>
    <path id="Path_321" data-name="Path 321" d="M271.414,357.29s-3.327,8.484-.83,11.977l5.489-1.253s-4.991,1.5-4.242-1.5S271.414,357.29,271.414,357.29Z" transform="translate(-212.728 -264.638)" opacity="0.1"/>
    <path id="Path_322" data-name="Path 322" d="M269.43,422s7.237.5,9.233-1a19.112,19.112,0,0,1-9.007,3.76Z" transform="translate(-212.574 -308.387)" opacity="0.1"/>
    <path id="Path_323" data-name="Path 323" d="M369,373.22s3.744,11.479,3.493,13.224-.749,20.96-.749,20.96l-.749-.251.251-20.96Z" transform="translate(-280.949 -275.577)" opacity="0.1"/>
    <path id="Path_328" data-name="Path 328" d="M876,457.9a6.342,6.342,0,0,0,1.523,3.76,5.4,5.4,0,0,0,0-7.519A6.341,6.341,0,0,0,876,457.9Z" transform="translate(-624.579 -339.42)" fill="#27d799" opacity="0.1"/>
    <path id="Path_338" data-name="Path 338" d="M892.21,457.9a6.341,6.341,0,0,0,1.523,3.76,5.4,5.4,0,0,0,0-7.519A6.341,6.341,0,0,0,892.21,457.9Z" transform="translate(-632.512 -333.623)" fill="#27d799" opacity="0.1"/>
    <path id="Path_348" data-name="Path 348" d="M185.439,664.66s2.625,3.446-1.212,8.616-7,9.559-5.721,12.8c0,0,5.79-9.628,10.5-9.762S190.621,670.45,185.439,664.66Z" transform="translate(-149.937 -475.709)" fill="#27d799"/>
    <path id="Path_349" data-name="Path 349" d="M185.764,664.66a4.251,4.251,0,0,1,.536,1.078c4.6,5.4,7.046,10.442,2.629,10.571-4.117.119-9.054,7.478-10.239,9.339a3.986,3.986,0,0,0,.141.423s5.79-9.628,10.5-9.762S190.946,670.45,185.764,664.66Z" transform="translate(-150.263 -475.709)" opacity="0.1"/>
    <path id="Path_350" data-name="Path 350" d="M215.477,676.936c0,1.209-.135,2.193-.313,2.193s-.313-.981-.313-2.193.169-.627.335-.627S215.477,675.73,215.477,676.936Z" transform="translate(-175.094 -483.612)" fill="#ffd037"/>
    <path id="Path_351" data-name="Path 351" d="M217.653,681.417c-1.062.58-1.986.94-2.065.78s.714-.736,1.776-1.313.642-.157.724,0S218.715,680.837,217.653,681.417Z" transform="translate(-175.597 -486.648)" fill="#ffd037"/>
    <path id="Path_352" data-name="Path 352" d="M144.086,664.66s-2.625,3.446,1.212,8.616,7,9.559,5.721,12.792c0,0-5.79-9.628-10.5-9.762S138.9,670.45,144.086,664.66Z" transform="translate(-122.455 -475.709)" fill="#27d799"/>
    <path id="Path_353" data-name="Path 353" d="M144.086,664.66a4.25,4.25,0,0,0-.536,1.078c-4.6,5.4-7.046,10.442-2.629,10.571,4.117.119,9.054,7.478,10.239,9.339a3.991,3.991,0,0,1-.141.423s-5.79-9.628-10.5-9.762S138.9,670.45,144.086,664.66Z" transform="translate(-122.455 -475.709)" opacity="0.1"/>
    <path id="Path_354" data-name="Path 354" d="M141.42,676.936c0,1.209.135,2.193.313,2.193s.313-.981.313-2.193-.169-.627-.335-.627S141.42,675.73,141.42,676.936Z" transform="translate(-124.669 -483.612)" fill="#ffd037"/>
    <path id="Path_355" data-name="Path 355" d="M134.661,681.417c1.062.58,1.986.94,2.065.78s-.714-.736-1.776-1.313-.642-.157-.724,0S133.6,680.837,134.661,681.417Z" transform="translate(-119.583 -486.648)" fill="#ffd037"/>
    <path id="Path_356" data-name="Path 356" d="M144.09,722.859s7.341-.226,9.552-1.8,11.279-3.446,11.84-.94,11.031,12.566,2.744,12.632-19.255-1.291-21.464-2.635S144.09,722.859,144.09,722.859Z" transform="translate(-126.503 -512.952)" fill="#a8a8a8"/>
    <path id="Path_357" data-name="Path 357" d="M168.384,740.559c-8.287.066-19.255-1.291-21.464-2.635-1.682-1.024-2.353-4.7-2.575-6.394H144.1s.464,5.921,2.672,7.265,13.177,2.7,21.464,2.635c2.394-.019,3.218-.871,3.174-2.13C171.075,740.071,170.163,740.544,168.384,740.559Z" transform="translate(-126.51 -521.629)" opacity="0.2"/>
  </g>
</svg>
