<svg xmlns="http://www.w3.org/2000/svg" width="393.921" height="247.51" viewBox="0 0 393.921 247.51">
  <g id="Group_226" data-name="Group 226" transform="translate(52 0)">
    <circle id="Ellipse_11" data-name="Ellipse 11" cx="21.83" cy="21.83" r="21.83" transform="translate(58.444 12.343)" fill="#ffe016"/>
    <path id="Path_190" data-name="Path 190" d="M580.148,74.1H553.963V50.3Z" transform="translate(-372.402 -33.563)" fill="#3f3d56"/>
    <rect id="Rectangle_143" data-name="Rectangle 143" width="131.727" height="181.988" transform="translate(79.079 39.758)" fill="#e6e6e6"/>
    <rect id="Rectangle_144" data-name="Rectangle 144" width="15.497" height="32.655" transform="translate(92.221 52.518)" fill="#fff"/>
    <rect id="Rectangle_145" data-name="Rectangle 145" width="15.497" height="32.655" transform="translate(116.192 52.518)" fill="#fff"/>
    <rect id="Rectangle_146" data-name="Rectangle 146" width="15.497" height="32.655" transform="translate(90.178 98.802)" fill="#fff"/>
    <rect id="Rectangle_147" data-name="Rectangle 147" width="15.497" height="32.655" transform="translate(116.192 98.802)" fill="#fff"/>
    <rect id="Rectangle_148" data-name="Rectangle 148" width="15.497" height="32.655" transform="translate(90.178 141.627)" fill="#fff"/>
    <rect id="Rectangle_149" data-name="Rectangle 149" width="15.497" height="32.655" transform="translate(115.608 141.044)" fill="#fff"/>
    <rect id="Rectangle_150" data-name="Rectangle 150" width="15.497" height="32.655" transform="translate(138.133 189.165)" fill="#ccc"/>
    <rect id="Rectangle_151" data-name="Rectangle 151" width="15.497" height="32.655" transform="translate(161.547 141.044)" fill="#fff"/>
    <rect id="Rectangle_152" data-name="Rectangle 152" width="15.497" height="32.655" transform="translate(187.56 141.044)" fill="#fff"/>
    <rect id="Rectangle_153" data-name="Rectangle 153" width="15.497" height="32.655" transform="translate(162.13 98.456)" fill="#fff"/>
    <rect id="Rectangle_154" data-name="Rectangle 154" width="15.497" height="32.655" transform="translate(188.143 98.456)" fill="#fff"/>
    <rect id="Rectangle_155" data-name="Rectangle 155" width="15.497" height="32.655" transform="translate(162.13 52.518)" fill="#fff"/>
    <rect id="Rectangle_156" data-name="Rectangle 156" width="15.497" height="32.655" transform="translate(188.143 52.518)" fill="#fff"/>
    <rect id="Rectangle_157" data-name="Rectangle 157" width="131.727" height="4.981" transform="translate(79.079 81.822)" fill="#3f3d56"/>
    <rect id="Rectangle_158" data-name="Rectangle 158" width="131.727" height="2.767" transform="translate(79.079 120.565)" fill="#3f3d56"/>
    <rect id="Rectangle_159" data-name="Rectangle 159" width="131.727" height="2.767" transform="translate(79.079 111.709)" fill="#3f3d56"/>
    <rect id="Rectangle_160" data-name="Rectangle 160" width="22.139" height="2.767" transform="translate(92.086 154.327) rotate(90)" fill="#3f3d56"/>
    <rect id="Rectangle_161" data-name="Rectangle 161" width="22.139" height="2.767" transform="translate(107.583 154.327) rotate(90)" fill="#3f3d56"/>
    <rect id="Rectangle_162" data-name="Rectangle 162" width="22.139" height="2.767" transform="translate(123.08 154.327) rotate(90)" fill="#3f3d56"/>
    <rect id="Rectangle_163" data-name="Rectangle 163" width="22.139" height="2.767" transform="translate(138.577 154.327) rotate(90)" fill="#3f3d56"/>
    <rect id="Rectangle_164" data-name="Rectangle 164" width="22.139" height="2.767" transform="translate(154.075 154.327) rotate(90)" fill="#3f3d56"/>
    <rect id="Rectangle_165" data-name="Rectangle 165" width="22.139" height="2.767" transform="translate(169.572 154.327) rotate(90)" fill="#3f3d56"/>
    <rect id="Rectangle_166" data-name="Rectangle 166" width="22.139" height="2.767" transform="translate(185.069 154.327) rotate(90)" fill="#3f3d56"/>
    <rect id="Rectangle_167" data-name="Rectangle 167" width="22.139" height="2.767" transform="translate(200.567 154.327) rotate(90)" fill="#3f3d56"/>
    <rect id="Rectangle_168" data-name="Rectangle 168" width="22.139" height="2.767" transform="translate(92.362 112.263) rotate(90)" fill="#3f3d56"/>
    <rect id="Rectangle_169" data-name="Rectangle 169" width="22.139" height="2.767" transform="translate(107.86 112.263) rotate(90)" fill="#3f3d56"/>
    <rect id="Rectangle_170" data-name="Rectangle 170" width="22.139" height="2.767" transform="translate(123.357 112.263) rotate(90)" fill="#3f3d56"/>
    <rect id="Rectangle_171" data-name="Rectangle 171" width="22.139" height="2.767" transform="translate(138.854 112.263) rotate(90)" fill="#3f3d56"/>
    <rect id="Rectangle_172" data-name="Rectangle 172" width="22.139" height="2.767" transform="translate(154.351 112.263) rotate(90)" fill="#3f3d56"/>
    <rect id="Rectangle_173" data-name="Rectangle 173" width="22.139" height="2.767" transform="translate(169.849 112.263) rotate(90)" fill="#3f3d56"/>
    <rect id="Rectangle_174" data-name="Rectangle 174" width="22.139" height="2.767" transform="translate(185.346 112.263) rotate(90)" fill="#3f3d56"/>
    <rect id="Rectangle_175" data-name="Rectangle 175" width="22.139" height="2.767" transform="translate(200.843 112.263) rotate(90)" fill="#3f3d56"/>
    <rect id="Rectangle_176" data-name="Rectangle 176" width="22.139" height="2.767" transform="translate(92.362 63.004) rotate(90)" fill="#3f3d56"/>
    <rect id="Rectangle_177" data-name="Rectangle 177" width="22.139" height="2.767" transform="translate(107.86 63.004) rotate(90)" fill="#3f3d56"/>
    <rect id="Rectangle_178" data-name="Rectangle 178" width="22.139" height="2.767" transform="translate(123.357 63.004) rotate(90)" fill="#3f3d56"/>
    <rect id="Rectangle_179" data-name="Rectangle 179" width="22.139" height="2.767" transform="translate(138.854 63.004) rotate(90)" fill="#3f3d56"/>
    <rect id="Rectangle_180" data-name="Rectangle 180" width="22.139" height="2.767" transform="translate(154.352 63.004) rotate(90)" fill="#3f3d56"/>
    <rect id="Rectangle_181" data-name="Rectangle 181" width="22.139" height="2.767" transform="translate(169.849 63.004) rotate(90)" fill="#3f3d56"/>
    <rect id="Rectangle_182" data-name="Rectangle 182" width="22.139" height="2.767" transform="translate(185.346 63.004) rotate(90)" fill="#3f3d56"/>
    <rect id="Rectangle_183" data-name="Rectangle 183" width="22.139" height="2.767" transform="translate(200.843 63.004) rotate(90)" fill="#3f3d56"/>
    <rect id="Rectangle_184" data-name="Rectangle 184" width="131.727" height="2.767" transform="translate(79.079 70.753)" fill="#3f3d56"/>
    <rect id="Rectangle_185" data-name="Rectangle 185" width="131.727" height="2.767" transform="translate(79.079 61.897)" fill="#3f3d56"/>
    <rect id="Rectangle_186" data-name="Rectangle 186" width="131.727" height="4.981" transform="translate(79.079 129.974)" fill="#3f3d56"/>
    <rect id="Rectangle_187" data-name="Rectangle 187" width="143.85" height="7.423" transform="translate(73.017 37.71)" fill="#3f3d56"/>
    <path id="Path_191" data-name="Path 191" d="M315.094,575.66V568.6H306.62v7.061h8.473Z" transform="translate(-207.346 -379.434)" fill="#fff"/>
    <path id="Path_192" data-name="Path 192" d="M314.387,606.8H306.62v7.061h8.473V606.8Z" transform="translate(-207.346 -404.929)" fill="#fff"/>
    <rect id="Rectangle_188" data-name="Rectangle 188" width="8.473" height="7.061" transform="translate(113.396 189.165)" fill="#fff"/>
    <rect id="Rectangle_189" data-name="Rectangle 189" width="8.473" height="7.061" transform="translate(113.396 201.874)" fill="#fff"/>
    <path id="Path_193" data-name="Path 193" d="M522.826,575.66V568.6h-8.473v7.061h8.473Z" transform="translate(-345.969 -379.434)" fill="#fff"/>
    <path id="Path_194" data-name="Path 194" d="M522.12,606.8h-7.767v7.061h8.473V606.8Z" transform="translate(-345.969 -404.929)" fill="#fff"/>
    <rect id="Rectangle_190" data-name="Rectangle 190" width="8.473" height="7.061" transform="translate(182.506 189.165)" fill="#fff"/>
    <rect id="Rectangle_191" data-name="Rectangle 191" width="8.473" height="7.061" transform="translate(182.506 201.874)" fill="#fff"/>
    <rect id="Rectangle_192" data-name="Rectangle 192" width="131.727" height="4.981" transform="translate(79.079 172.038)" fill="#3f3d56"/>
    <rect id="Rectangle_193" data-name="Rectangle 193" width="131.727" height="2.767" transform="translate(79.079 163.183)" fill="#3f3d56"/>
    <rect id="Rectangle_194" data-name="Rectangle 194" width="131.727" height="2.767" transform="translate(79.079 154.327)" fill="#3f3d56"/>
    <path id="Path_195" data-name="Path 195" d="M486.3,728.114q0-.231-.006-.46c-.118-4.08-4.166-5.187-6.335-3.255a3.764,3.764,0,0,0-4.936,0c-2.179-1.9-6.146-.873-6.277,3.161q-.007.229-.008.46a23.669,23.669,0,0,0,.156,2.538h17.253A23.432,23.432,0,0,0,486.3,728.114Z" transform="translate(-367.344 -508.739)" fill="#2ad490"/>
    <path id="Path_196" data-name="Path 196" d="M692.412,728.114q0-.231-.006-.46c-.118-4.08-4.166-5.187-6.336-3.255a3.764,3.764,0,0,0-4.936,0c-2.179-1.9-6.146-.873-6.277,3.161q-.007.229-.008.46a23.677,23.677,0,0,0,.156,2.538h17.253A23.407,23.407,0,0,0,692.412,728.114Z" transform="translate(-504.884 -508.739)" fill="#2ad490"/>
    <path id="Path_197" data-name="Path 197" d="M850.962,563.032h-2.668l.889-52.121h.89Z" transform="translate(-568.813 -340.938)" fill="#e6e6e6"/>
    <path id="Path_198" data-name="Path 198" d="M984.844,440.339l4.307-6.656a99.826,99.826,0,0,0-4.419-10.344l-2.785,2.249,2.205-3.408c-2.1-4.137-3.755-6.743-3.755-6.743s-8.638,13.612-11.524,28.024L974.4,452l-6.119-4.942a40.364,40.364,0,0,0-.336,5.063c0,17.069,5.575,30.906,12.451,30.906s12.451-13.837,12.451-30.906A53.154,53.154,0,0,0,990,436.174Z" transform="translate(-700.472 -303.18)" fill="#e6e6e6"/>
    <path id="Path_199" data-name="Path 199" d="M713.894,448.447H656.97v41.914H657v8.345l8.345-8.345h48.544Z" transform="translate(-441.14 -299.255)" fill="#00bcff"/>
    <rect id="Rectangle_195" data-name="Rectangle 195" width="50.503" height="1.996" transform="translate(150.265 238.706)" fill="#e6e6e6"/>
    <rect id="Rectangle_196" data-name="Rectangle 196" width="50.776" height="1.996" transform="translate(242.086 238.706)" fill="#e6e6e6"/>
    <rect id="Rectangle_197" data-name="Rectangle 197" width="50.568" height="1.996" transform="translate(58.444 238.706)" fill="#e6e6e6"/>
    <rect id="Rectangle_198" data-name="Rectangle 198" width="393.921" height="0.557" transform="translate(-52 221.774)" fill="#3f3d56"/>
    <rect id="Rectangle_199" data-name="Rectangle 199" width="5.947" height="0.944" transform="matrix(-1, -0.001, 0.001, -1, 234.891, 231.391)" fill="#3f3d56"/>
    <path id="Path_200" data-name="Path 200" d="M722.892,724.987l1.227.284,46.632.025.419-.977a9.862,9.862,0,0,0,.725-5.332,4.149,4.149,0,0,0-1.847-3.272l-2.069-13.783-25.8-.046-9.982,8.051s-4.708-.085-7.266,3.1a7.474,7.474,0,0,0-1.563,4.117l-.1,1.657Z" transform="translate(-536.943 -494.332)" fill="#00bcff"/>
    <circle id="Ellipse_12" data-name="Ellipse 12" cx="5.758" cy="5.758" r="5.758" transform="translate(190.432 224.667)" fill="#3f3d56"/>
    <circle id="Ellipse_13" data-name="Ellipse 13" cx="3.031" cy="3.031" r="3.031" transform="translate(193.16 227.394)" fill="#ccc"/>
    <circle id="Ellipse_14" data-name="Ellipse 14" cx="5.758" cy="5.758" r="5.758" transform="translate(218.846 224.682)" fill="#3f3d56"/>
    <circle id="Ellipse_15" data-name="Ellipse 15" cx="3.031" cy="3.031" r="3.031" transform="translate(221.573 227.409)" fill="#ccc"/>
    <path id="Path_201" data-name="Path 201" d="M607.043,634.079l13.93.006h1.7l2.871,0v-.21l0-2.524,0-2.835h-1.91l-1.7,0-3.012,0h-1.7l-3.477,0Z" transform="translate(-407.823 -419.415)" fill="#fff"/>
    <path id="Path_202" data-name="Path 202" d="M669.466,634.1l7.362,0,0-1.445V630.14l0-1.6h-1.078l-1.7,0-4.585,0Z" transform="translate(-449.479 -419.431)" fill="#fff"/>
    <rect id="Rectangle_200" data-name="Rectangle 200" width="0.944" height="1.794" transform="matrix(-1, -0.001, 0.001, -1, 217.717, 220.62)" fill="#3f3d56"/>
    <rect id="Rectangle_201" data-name="Rectangle 201" width="0.944" height="1.794" transform="matrix(-0.001, 1, -1, -0.001, 202.996, 216.27)" fill="#3f3d56"/>
    <path id="Path_203" data-name="Path 203" d="M0,0H.1A1.973,1.973,0,0,1,2.077,1.973h0A1.973,1.973,0,0,1,.1,3.946H0V0Z" transform="matrix(-1, -0.001, 0.001, -1, 202.333, 216.685)" fill="#3f3d56"/>
    <path id="Path_204" data-name="Path 204" d="M724.02,741.175a3.049,3.049,0,0,0,1.664-5.773,7.476,7.476,0,0,0-1.564,4.117Z" transform="translate(-537.696 -516.698)" fill="#3f3d56"/>
    <path id="Path_205" data-name="Path 205" d="M651.813,628.524l3.606,5.361,0-2.524-1.908-2.835Z" transform="translate(-437.698 -419.423)" fill="#f2f2f2"/>
    <path id="Path_206" data-name="Path 206" d="M683.255,628.542l2.776,4.126v-2.524l-1.076-1.6Z" transform="translate(-458.68 -419.435)" fill="#f2f2f2"/>
    <path id="Path_207" data-name="Path 207" d="M637.649,628.518l3.747,5.57h1.7l-3.747-5.57Z" transform="translate(-428.247 -419.419)" fill="#f2f2f2"/>
    <path id="Path_208" data-name="Path 208" d="M538.062,78.361l-.038.021a2.845,2.845,0,0,1-2.713.01l-.072-.038a2.858,2.858,0,0,0-2.709.009l-.036.02a2.845,2.845,0,0,1-2.712.01l-.075-.04a2.842,2.842,0,0,0-2.683,0c-1.262.679-2.967,1.841-2.96,3.153a1.535,1.535,0,0,0,.009.155c.147,1.362,4.591,1.71,7.032,1.068a12.429,12.429,0,0,0,5.53,0c2.431.652,6.965.279,7.1-1.1a1.535,1.535,0,0,0,.007-.155c-.008-1.313-1.728-2.462-3-3.132a2.839,2.839,0,0,0-2.679.025Z" transform="translate(-404.263 -78.012)" fill="#e6e6e6"/>
    <path id="Path_209" data-name="Path 209" d="M906.062,213.577l-.038.021a2.845,2.845,0,0,1-2.713.01l-.072-.038a2.858,2.858,0,0,0-2.709.009l-.036.02a2.845,2.845,0,0,1-2.713.01l-.074-.04a2.842,2.842,0,0,0-2.683,0c-1.262.679-2.967,1.841-2.96,3.153a1.517,1.517,0,0,0,.009.155c.147,1.362,4.591,1.71,7.032,1.068a12.429,12.429,0,0,0,5.53,0c2.431.652,6.965.279,7.1-1.1a1.518,1.518,0,0,0,.007-.155c-.008-1.313-1.728-2.462-3-3.132A2.839,2.839,0,0,0,906.062,213.577Z" transform="translate(-649.834 -168.244)" fill="#e6e6e6"/>
    <path id="Path_210" data-name="Path 210" d="M261.632,221.125l-.038.021a2.845,2.845,0,0,1-2.712.01l-.072-.038a2.858,2.858,0,0,0-2.709.009l-.036.02a2.845,2.845,0,0,1-2.712.01l-.074-.04a2.842,2.842,0,0,0-2.683,0c-1.262.679-2.967,1.841-2.96,3.153a1.526,1.526,0,0,0,.009.155c.147,1.362,4.591,1.71,7.032,1.068a12.429,12.429,0,0,0,5.53,0c2.431.652,6.965.279,7.1-1.1a1.544,1.544,0,0,0,.007-.155c-.008-1.313-1.728-2.462-3-3.132A2.839,2.839,0,0,0,261.632,221.125Z" transform="translate(-219.797 -173.28)" fill="#e6e6e6"/>
    <rect id="Rectangle_202" data-name="Rectangle 202" width="5.947" height="0.944" transform="translate(27.966 241.755)" fill="#3f3d56"/>
    <path id="Path_211" data-name="Path 211" d="M296.65,758.988l-1.227.284-46.632.025-.419-.977a9.861,9.861,0,0,1-.725-5.332,4.149,4.149,0,0,1,1.847-3.272l2.069-13.783,25.8-.046,9.982,8.051s4.708-.085,7.266,3.1a7.475,7.475,0,0,1,1.564,4.117l.1,1.657Z" transform="translate(-219.74 -517.021)" fill="#00bcff"/>
    <circle id="Ellipse_16" data-name="Ellipse 16" cx="5.758" cy="5.758" r="5.758" transform="translate(60.91 235.978)" fill="#3f3d56"/>
    <circle id="Ellipse_17" data-name="Ellipse 17" cx="3.031" cy="3.031" r="3.031" transform="translate(63.638 238.706)" fill="#ccc"/>
    <circle id="Ellipse_18" data-name="Ellipse 18" cx="5.758" cy="5.758" r="5.758" transform="translate(32.497 235.994)" fill="#3f3d56"/>
    <circle id="Ellipse_19" data-name="Ellipse 19" cx="3.031" cy="3.031" r="3.031" transform="translate(35.224 238.721)" fill="#ccc"/>
    <path id="Path_212" data-name="Path 212" d="M162.388,668.078l-13.93.006h-1.7l-2.871,0v-.21l0-2.524,0-2.835h1.91l1.7,0,3.012,0h1.7l3.477,0Z" transform="translate(-98.749 -442.104)" fill="#fff"/>
    <path id="Path_213" data-name="Path 213" d="M122.308,668.105l-7.362,0,0-1.445v-2.524l0-1.6h1.078l1.7,0,4.585,0Z" transform="translate(-79.436 -442.121)" fill="#fff"/>
    <rect id="Rectangle_203" data-name="Rectangle 203" width="0.944" height="1.794" transform="translate(45.14 230.137)" fill="#3f3d56"/>
    <rect id="Rectangle_204" data-name="Rectangle 204" width="0.944" height="1.794" transform="matrix(0.001, 1, -1, 0.001, 61.657, 227.578)" fill="#3f3d56"/>
    <path id="Path_214" data-name="Path 214" d="M190.143,673.457h.1a1.973,1.973,0,0,1,1.973,1.973h0a1.973,1.973,0,0,1-1.973,1.973h-.1v-3.946Z" transform="translate(-129.619 -449.408)" fill="#3f3d56"/>
    <path id="Path_215" data-name="Path 215" d="M387.233,775.177a3.049,3.049,0,0,1-1.664-5.773,7.475,7.475,0,0,1,1.564,4.117Z" transform="translate(-310.698 -539.388)" fill="#3f3d56"/>
    <path id="Path_216" data-name="Path 216" d="M147.5,662.524l-3.606,5.361,0-2.524,1.908-2.834Z" transform="translate(-98.753 -442.112)" fill="#f2f2f2"/>
    <path id="Path_217" data-name="Path 217" d="M117.724,662.543l-2.776,4.126v-2.524l1.076-1.6Z" transform="translate(-79.44 -442.125)" fill="#f2f2f2"/>
    <path id="Path_218" data-name="Path 218" d="M157.972,662.518l-3.747,5.571h-1.7l3.747-5.571Z" transform="translate(-104.515 -442.108)" fill="#f2f2f2"/>
    <path id="Path_219" data-name="Path 219" d="M721.947,497.207l-7.269-9.346,4.227-3.288L722.347,489l11.627-12.273,3.888,3.684Z" transform="translate(-479.649 -318.126)" fill="#fff"/>
    <path id="Path_220" data-name="Path 220" d="M6.34,480.325H63.264v41.914h-.035v8.345l-8.345-8.345H6.34Z" transform="translate(-6.965 -320.528)" fill="#00bcff"/>
    <path id="Path_221" data-name="Path 221" d="M72.461,532.085l-7.269-9.346,4.227-3.288,3.442,4.425L84.488,511.6l3.888,3.683Z" transform="translate(-46.238 -341.4)" fill="#fff"/>
  </g>
</svg>
