<svg xmlns="http://www.w3.org/2000/svg" width="25.605" height="25.605" viewBox="0 0 25.605 25.605">
  <g id="Group_289" data-name="Group 289" transform="translate(-647.5 -239.5)">
    <path id="Path_377" data-name="Path 377" d="M655.5,244.792v-3.219a1.073,1.073,0,0,1,1.073-1.073h6.438a1.073,1.073,0,0,1,1.073,1.073v3.219" transform="translate(0.511)" fill="none" stroke="#00bcff" stroke-linecap="round" stroke-linejoin="round" stroke-width="2"/>
    <path id="Path_378" data-name="Path 378" d="M657.084,255.23H648.5v-9.657a1.073,1.073,0,0,1,1.073-1.073h21.46a1.073,1.073,0,0,1,1.073,1.073v9.657h-8.584" transform="translate(0 0.292)" fill="none" stroke="#00bcff" stroke-linecap="round" stroke-linejoin="round" stroke-width="2"/>
    <path id="Path_379" data-name="Path 379" d="M670.96,257.5v4.292a1.073,1.073,0,0,1-1.073,1.073H650.573a1.073,1.073,0,0,1-1.073-1.073V257.5" transform="translate(0.073 1.241)" fill="none" stroke="#00bcff" stroke-linecap="round" stroke-linejoin="round" stroke-width="2"/>
    <rect id="Rectangle_377" data-name="Rectangle 377" width="6" height="5" transform="translate(657.5 253.105)" fill="none" stroke="#00bcff" stroke-linecap="round" stroke-linejoin="round" stroke-width="2"/>
  </g>
</svg>
