<svg xmlns="http://www.w3.org/2000/svg" width="20" height="25" viewBox="0 0 20 25">
  <g id="Group_89" data-name="Group 89" transform="translate(-1275.5 -1127.5)">
    <path id="Rectangle_124" data-name="Rectangle 124" d="M0,0H16a0,0,0,0,1,0,0V15a2,2,0,0,1-2,2H2a2,2,0,0,1-2-2V0A0,0,0,0,1,0,0Z" transform="translate(1277.5 1134.5)" fill="none" stroke="#fff" stroke-linecap="round" stroke-linejoin="round" stroke-width="2"/>
    <path id="Rectangle_125" data-name="Rectangle 125" d="M1,0H17a1,1,0,0,1,1,1V3a0,0,0,0,1,0,0H0A0,0,0,0,1,0,3V1A1,1,0,0,1,1,0Z" transform="translate(1276.5 1131.5)" fill="none" stroke="#fff" stroke-linecap="round" stroke-linejoin="round" stroke-width="2"/>
    <path id="Rectangle_126" data-name="Rectangle 126" d="M1,0H7A1,1,0,0,1,8,1V3A0,0,0,0,1,8,3H0A0,0,0,0,1,0,3V1A1,1,0,0,1,1,0Z" transform="translate(1281.5 1128.5)" fill="none" stroke="#fff" stroke-linecap="round" stroke-linejoin="round" stroke-width="2"/>
    <line id="Line_10" data-name="Line 10" y2="10" transform="translate(1282.5 1137.5)" fill="none" stroke="#fff" stroke-linecap="round" stroke-linejoin="round" stroke-width="2"/>
    <line id="Line_11" data-name="Line 11" y2="10" transform="translate(1285.5 1137.5)" fill="none" stroke="#fff" stroke-linecap="round" stroke-linejoin="round" stroke-width="2"/>
    <line id="Line_12" data-name="Line 12" y2="10" transform="translate(1288.5 1137.5)" fill="none" stroke="#fff" stroke-linecap="round" stroke-linejoin="round" stroke-width="2"/>
  </g>
</svg>
