<svg xmlns="http://www.w3.org/2000/svg" width="30.271" height="30.325" viewBox="0 0 30.271 30.325">
  <path id="Icon_feather-phone-call" data-name="Icon feather-phone-call" d="M20.613,6.893a6.742,6.742,0,0,1,5.326,5.326M20.613,1.5a12.135,12.135,0,0,1,10.72,10.706m-1.348,10.76v4.045a2.7,2.7,0,0,1-2.939,2.7,26.684,26.684,0,0,1-11.636-4.139,26.293,26.293,0,0,1-8.09-8.09,26.684,26.684,0,0,1-4.14-11.69A2.7,2.7,0,0,1,5.862,2.848H9.907a2.7,2.7,0,0,1,2.7,2.319,17.313,17.313,0,0,0,.944,3.789,2.7,2.7,0,0,1-.607,2.845l-1.712,1.712a21.574,21.574,0,0,0,8.09,8.09l1.712-1.712a2.7,2.7,0,0,1,2.845-.607,17.313,17.313,0,0,0,3.789.944A2.7,2.7,0,0,1,29.984,22.966Z" transform="translate(-2.167 -0.396)" fill="none" stroke="#00bcff" stroke-linecap="round" stroke-linejoin="round" stroke-width="2"/>
</svg>
