<svg xmlns="http://www.w3.org/2000/svg" xmlns:xlink="http://www.w3.org/1999/xlink" width="25.725" height="37.762" viewBox="0 0 25.725 37.762">
  <defs>
    <clipPath id="clip-path">
      <rect width="25.725" height="37.762" fill="none"/>
    </clipPath>
  </defs>
  <g id="Repeat_Grid_1" data-name="Repeat Grid 1" clip-path="url(#clip-path)">
    <g id="Group_190" data-name="Group 190" transform="translate(-2340.89 -1826.483)">
      <g id="Group_185" data-name="Group 185" transform="translate(2340.89 1826.483)">
        <path id="Path_183" data-name="Path 183" d="M2364.424,1832.36h-21.341a2.193,2.193,0,0,1-2.192-2.19v-3.054a.633.633,0,0,1,.634-.633h24.458a.633.633,0,0,1,.634.633v3.054A2.193,2.193,0,0,1,2364.424,1832.36Zm-22.266-4.612v2.422a.924.924,0,0,0,.925.925h21.341a.925.925,0,0,0,.924-.925v-2.422Z" transform="translate(-2340.89 -1826.483)" fill="#1a1a1a"/>
      </g>
      <g id="Group_186" data-name="Group 186" transform="translate(2340.89 1858.367)">
        <path id="Path_184" data-name="Path 184" d="M2365.982,1851.533h-24.458a.635.635,0,0,1-.634-.634v-3.055a2.194,2.194,0,0,1,2.192-2.19h21.341a2.193,2.193,0,0,1,2.192,2.19v3.055A.634.634,0,0,1,2365.982,1851.533Zm-23.824-1.267h23.19v-2.422a.926.926,0,0,0-.924-.925h-21.341a.926.926,0,0,0-.925.925Z" transform="translate(-2340.89 -1845.654)" fill="#1a1a1a"/>
      </g>
      <g id="Group_187" data-name="Group 187" transform="translate(2355.865 1831.095)">
        <path id="Path_185" data-name="Path 185" d="M2356.367,1857.794a.631.631,0,0,1-.633-.632v-4.444a4.849,4.849,0,0,0-1.432-3.456l-3.471-3.473a3.2,3.2,0,0,1,0-4.527l3.471-3.473a4.849,4.849,0,0,0,1.432-3.458v-4.442a.633.633,0,1,1,1.265,0v4.442a6.109,6.109,0,0,1-1.8,4.352l-3.473,3.472a1.934,1.934,0,0,0,0,2.736l3.473,3.473a6.112,6.112,0,0,1,1.8,4.353v4.444A.631.631,0,0,1,2356.367,1857.794Z" transform="translate(-2349.894 -1829.256)" fill="#1a1a1a"/>
      </g>
      <g id="Group_188" data-name="Group 188" transform="translate(2344.534 1831.095)">
        <path id="Path_186" data-name="Path 186" d="M2343.715,1857.794a.632.632,0,0,1-.634-.632v-4.444a6.114,6.114,0,0,1,1.8-4.353l3.472-3.473a1.935,1.935,0,0,0,0-2.736l-3.472-3.472a6.114,6.114,0,0,1-1.8-4.352v-4.442a.633.633,0,1,1,1.266,0v4.442a4.858,4.858,0,0,0,1.432,3.458l3.473,3.473a3.2,3.2,0,0,1,0,4.527l-3.473,3.473a4.855,4.855,0,0,0-1.432,3.456v4.444A.632.632,0,0,1,2343.715,1857.794Z" transform="translate(-2343.081 -1829.256)" fill="#1a1a1a"/>
      </g>
      <g id="Group_189" data-name="Group 189" transform="translate(2347.454 1849.422)">
        <path id="Path_187" data-name="Path 187" d="M2356.385,1850.486a.632.632,0,0,1-.634-.632v-3.28a3.06,3.06,0,0,0-.9-2.175l-2.1-2.1a2.575,2.575,0,0,0-3.635,0l-2.1,2.1a3.052,3.052,0,0,0-.9,2.175v3.28a.634.634,0,0,1-1.268,0v-3.28a4.315,4.315,0,0,1,1.272-3.07l2.1-2.1a3.838,3.838,0,0,1,5.429,0l2.1,2.1a4.314,4.314,0,0,1,1.27,3.07v3.28A.631.631,0,0,1,2356.385,1850.486Z" transform="translate(-2344.837 -1840.276)" fill="#1a1a1a"/>
      </g>
    </g>
  </g>
</svg>
