<svg xmlns="http://www.w3.org/2000/svg" width="24.333" height="26.46" viewBox="0 0 24.333 26.46">
  <g id="Group_288" data-name="Group 288" transform="translate(-191.5 -911.5)">
    <path id="Path_375" data-name="Path 375" d="M214.833,936.008H192.5l.15-1.053a7.444,7.444,0,0,1,7.37-6.391l3.647-1.063,3.647,1.063a7.444,7.444,0,0,1,7.37,6.391Z" transform="translate(0 0.952)" fill="none" stroke="#00bcff" stroke-linecap="round" stroke-linejoin="round" stroke-width="2"/>
    <path id="Path_376" data-name="Path 376" d="M202.78,924.2h0a4.358,4.358,0,0,1-4.33-3.875l-.331-2.985a4.356,4.356,0,0,1,4.329-4.838h.664a4.356,4.356,0,0,1,4.329,4.838l-.331,2.985A4.358,4.358,0,0,1,202.78,924.2Z" transform="translate(0.355)" fill="none" stroke="#00bcff" stroke-linecap="round" stroke-linejoin="round" stroke-width="2"/>
  </g>
</svg>
