<svg xmlns="http://www.w3.org/2000/svg" width="682.211" height="684.027" viewBox="0 0 682.211 684.027">
  <path id="Path_368" data-name="Path 368" d="M674.7,504.1a233.829,233.829,0,0,0,10.625-70.831c0-11.805-1.18-23.61-2.361-35.415h0c0-1.18,0-3.542-1.18-4.722C674.7,347.1,654.628,305.778,626.3,271.543l-1.18-1.181c-46.04-54.3-115.69-89.719-192.424-89.719A249.384,249.384,0,0,0,298.113,219.6c-1.181,0-2.361,1.181-3.542,2.361-69.65,44.859-115.69,122.773-115.69,211.312a311.856,311.856,0,0,0,2.361,34.235v3.542c2.361,11.805,4.722,23.61,7.083,34.235-25.971-51.943-37.776-110.968-33.054-168.813,3.542-40.137,16.527-80.275,37.776-114.51,1.181-2.361,2.361-3.542,3.542-5.9,2.361,0,7.083,1.181,14.166,1.181,27.152,0,86.177-8.264,175.9-62.567,126.315-76.733,225.478-25.971,230.2-23.61a12.555,12.555,0,0,0,14.166-2.361c3.542-4.722,3.542-10.625,1.18-14.166-1.18-1.181-129.856-173.535-332.9-87.358C220.2,60.231,180.062,121.618,184.784,198.351c-3.542,4.722-5.9,8.264-9.444,12.986-4.722,5.9-8.264,12.986-11.805,20.069,0-15.347-2.361-31.874-5.9-47.221a125.6,125.6,0,0,0-10.625-29.513c17.708-18.888,29.513-49.582-12.986-92.08C97.426,27.177,19.512,13.011,15.97,13.011c-3.542-1.181-8.264,1.18-10.625,4.722-3.542,4.722-2.361,9.444,0,14.166C25.415,57.87,28.956,74.4,33.678,92.105c3.542,14.166,7.083,29.513,20.069,49.582l1.181,1.181c16.527,18.888,34.235,29.513,51.943,30.693h1.181a46.3,46.3,0,0,0,21.249-4.722c2.361,7.083,4.722,14.166,5.9,21.249A332.947,332.947,0,0,1,145.827,273.9c-7.083,20.069-10.625,41.318-12.986,62.567-3.542,43.679,1.181,88.538,15.347,129.856A332.654,332.654,0,0,0,214.3,579.657c14.166,16.527,30.693,30.693,48.4,43.679,1.181,1.181,2.361,2.361,4.722,2.361a251.4,251.4,0,0,0,164.091,61.387c113.329,0,210.131-75.553,242.005-179.438a4.337,4.337,0,0,0,1.18-3.542ZM309.918,48.426C440.955-7.058,536.577,53.148,583.8,95.647,537.757,85.022,462.2,82.661,376.027,134.6c-81.455,49.582-135.759,57.845-160.55,59.026a304.015,304.015,0,0,1,64.928-57.845C314.64,113.354,353.6,95.647,393.735,86.2,433.872,75.578,476.37,70.856,518.869,74.4c-83.816-14.166-173.535,2.361-249.088,47.221a270.9,270.9,0,0,0-61.387,48.4C215.477,115.715,249.712,74.4,309.918,48.426ZM106.87,149.95c-10.625,0-22.43-7.083-34.235-21.249C62.01,112.174,59.649,99.188,56.108,86.2c-2.361-12.986-5.9-27.152-15.347-43.679,24.791,7.083,59.026,18.888,77.914,36.6,28.332,27.152,23.61,43.679,17.708,53.123-2.361-4.722-5.9-8.264-8.264-12.986a125.035,125.035,0,0,0-11.805-14.166L103.328,93.286c-2.361-2.361-4.722-3.542-7.083-5.9-2.361-1.181-4.722-3.542-7.083-4.722-5.9-2.361-11.805-4.722-16.527-7.083A125.459,125.459,0,0,0,83.26,88.564l5.9,5.9c1.181,2.361,3.542,4.722,4.722,7.083l9.444,12.986c2.361,4.722,5.9,9.444,8.264,14.166a107.936,107.936,0,0,1,8.264,16.527C116.314,148.77,111.592,149.95,106.87,149.95ZM525.952,406.122c-7.083-5.9-28.332-16.527-64.928,15.347-33.054,29.513-57.845,30.693-66.109,30.693-7.083-1.18-10.625-3.542-11.805-4.722-2.361-2.361-3.542-8.264-2.361-15.347s8.264-21.249,31.874-33.054c22.43-11.805,28.332-28.332,33.054-42.5,5.9-17.708,12.986-35.415,48.4-54.3,56.665-29.513,105.066-17.708,116.871-12.986a244.25,244.25,0,0,1,47.22,97.983c-20.069,3.542-54.3,16.527-75.553,63.748-11.805,25.971-28.332,29.513-35.415,30.693-8.264,0-14.166-2.361-16.527-5.9-2.361-2.361-1.181-5.9,1.18-10.625C542.479,442.717,540.118,417.927,525.952,406.122Zm55.484-146.384c-24.791-2.361-60.206,1.181-99.163,21.249-43.679,22.43-53.123,47.221-60.206,67.289-4.722,12.986-8.264,22.43-22.43,29.513-23.61,11.805-38.957,29.513-43.679,49.582-2.361,12.986-1.181,25.971,5.9,35.415,5.9,8.264,16.527,12.986,28.332,14.166,15.347,1.18,46.04-1.181,85-36.6C492.9,425.01,504.7,421.468,509.425,426.19c4.722,3.542,5.9,15.347-1.181,28.332-5.9,11.805-5.9,24.791,0,34.235,7.083,10.625,20.069,17.708,34.235,17.708h3.542c22.43-1.18,42.5-17.708,54.3-44.859,17.708-37.776,43.679-48.4,57.845-50.762,1.181,8.264,1.181,15.347,1.181,23.61,0,23.61-3.542,44.859-9.444,66.109-7.083,23.61-38.957,51.943-63.748,63.748-10.625,4.722-16.527,4.722-17.708,4.722v-2.361c0-16.527-4.722-27.152-14.166-33.054-16.527-9.444-37.776,2.361-41.318,4.722a1.156,1.156,0,0,0-1.181,1.181s-29.513,20.069-122.773-8.264c-81.455-24.791-122.773,15.347-140.481,40.137a228.573,228.573,0,0,1-43.679-102.7,1.156,1.156,0,0,1,1.181-1.181c2.361,1.181,7.083,3.542,14.166,14.166,11.805,14.166,22.43,18.888,30.693,18.888,3.542,0,5.9-1.181,8.264-1.181,35.415-11.805,41.318-90.9,41.318-123.954,0-48.4,61.387-79.094,101.524-99.163,28.332-14.166,43.679-22.43,43.679-36.6,0-4.722-2.361-11.805-12.986-17.708-14.166-7.083-31.874-9.444-49.582-10.625,15.347-3.542,31.874-4.722,48.4-4.722C489.356,204.254,541.3,225.5,581.436,259.738ZM307.557,240.85c12.986-2.361,74.372-15.347,109.788-2.361-7.083,3.542-16.527,9.444-25.971,14.166-44.859,22.43-113.329,57.845-114.51,120.412-1.181,68.47-15.347,99.163-24.791,102.7-2.361,1.181-8.264-2.361-12.986-9.444-8.264-10.625-21.249-24.791-35.415-22.43v-9.444C202.491,353,244.99,282.168,307.557,240.85ZM432.691,662.293c-66.109,0-125.134-28.332-167.633-73.192,9.444-16.527,41.318-59.026,118.051-36.6,100.344,29.513,136.94,9.444,144.023,4.722,5.9-3.542,14.166-5.9,16.527-4.722,1.181,0,2.361,3.542,2.361,11.805,0,14.166,7.083,23.61,20.069,25.971,11.805,1.18,28.332-3.542,44.859-14.166C568.451,629.239,503.522,662.293,432.691,662.293Z" transform="translate(-3.111 -3.057)" fill="#e6e6e6" opacity="0.35"/>
</svg>
