<svg xmlns="http://www.w3.org/2000/svg" width="468" height="472.044" viewBox="0 0 468 472.044">
  <g id="Group_9" data-name="Group 9" transform="translate(-959.5 -981.5)">
    <path id="Rectangle_15" data-name="Rectangle 15" d="M248.42,0h35.624a0,0,0,0,1,0,0V284.044a0,0,0,0,1,0,0H0a0,0,0,0,1,0,0V248.42A248.42,248.42,0,0,1,248.42,0Z" transform="translate(960 982)" fill="none" stroke="#ccc" stroke-width="1"/>
    <path id="Rectangle_16" data-name="Rectangle 16" d="M248.42,0h35.624a0,0,0,0,1,0,0V284.044a0,0,0,0,1,0,0H0a0,0,0,0,1,0,0V248.42A248.42,248.42,0,0,1,248.42,0Z" transform="translate(1427 1453.044) rotate(180)" fill="none" stroke="#ccc" stroke-width="1"/>
  </g>
</svg>
