<svg xmlns="http://www.w3.org/2000/svg" width="131.569" height="133.128" viewBox="0 0 131.569 133.128">
  <g id="_2b0ad5c467fab5640ad4ecd32e285e6b" data-name="2b0ad5c467fab5640ad4ecd32e285e6b" transform="translate(-0.683 -0.5)">
    <path id="Path_58" data-name="Path 58" d="M99.455,95.7v29.335a8.589,8.589,0,0,1-8.589,8.589H9.272a8.589,8.589,0,0,1-8.589-8.589V9.089A8.589,8.589,0,0,1,9.272.5H69.394L99.455,30.561Z" transform="translate(0)" fill="#ccc"/>
    <path id="Path_59" data-name="Path 59" d="M59.511,3.5H7.977A4.294,4.294,0,0,0,3.683,7.794v8.589a4.294,4.294,0,0,0,4.294,4.294H68.1ZM46.628,112.686a11.857,11.857,0,0,1-6.832-2.023,8.271,8.271,0,0,0-9.246,0,11.857,11.857,0,0,1-6.832,2.023,11.818,11.818,0,0,1-6.824-2.027,7.636,7.636,0,0,0-4.617-1.413,2.147,2.147,0,1,1,0-4.294,11.818,11.818,0,0,1,6.824,2.027,7.635,7.635,0,0,0,4.617,1.413,7.644,7.644,0,0,0,4.621-1.4,12.553,12.553,0,0,1,13.669,0,7.644,7.644,0,0,0,4.625,1.413,2.147,2.147,0,1,1,0,4.294Z" transform="translate(9.883 9.883)" fill="#fff"/>
    <path id="Path_60" data-name="Path 60" d="M75.861,19.391a6.553,6.553,0,0,1-1.89,4.552L26.9,71.01l-9.1-9.147L64.867,14.8a6.442,6.442,0,0,1,10.994,4.6Z" transform="translate(56.391 40.888)" fill="#0099cf"/>
    <path id="Path_61" data-name="Path 61" d="M19.418,39.495l-3.036-3.036,6.072-12.145,9.109,9.109Z" transform="translate(51.72 78.454)" fill="gray"/>
    <path id="Path_62" data-name="Path 62" d="M17.537,35.587a2.147,2.147,0,0,1-1.662-3.6l3.964-4.316A2.147,2.147,0,0,1,23,30.575L19.04,34.891A2.147,2.147,0,0,1,17.537,35.587Z" transform="translate(48.185 87.224)" fill="gray"/>
    <rect id="Rectangle_111" data-name="Rectangle 111" width="9" height="8" rx="1" transform="translate(13.708 44.5)" fill="#fff"/>
    <rect id="Rectangle_112" data-name="Rectangle 112" width="9" height="10" rx="1" transform="translate(13.708 64.5)" fill="#fff"/>
    <rect id="Rectangle_113" data-name="Rectangle 113" width="9" height="10" rx="1" transform="translate(13.708 85.5)" fill="#fff"/>
    <path id="Path_63" data-name="Path 63" d="M61.864,22.883H10.33a2.147,2.147,0,1,1,0-4.294H61.864a2.147,2.147,0,0,1,0,4.294Zm0-8.589H10.33a2.147,2.147,0,0,1,0-4.294H61.864a2.147,2.147,0,0,1,0,4.294Zm0,21.472H10.33a2.147,2.147,0,1,1,0-4.294H61.864a2.147,2.147,0,0,1,0,4.294Zm0,8.589H10.33a2.147,2.147,0,0,1,0-4.294H61.864a2.147,2.147,0,0,1,0,4.294ZM44.686,57.239H10.33a2.147,2.147,0,0,1,0-4.294H44.686a2.147,2.147,0,0,1,0,4.294Zm0,8.589H10.33a2.147,2.147,0,1,1,0-4.294H44.686a2.147,2.147,0,1,1,0,4.294Z" transform="translate(24.708 31.297)" fill="#fff"/>
    <path id="Path_64" data-name="Path 64" d="M46.744,30.561H25.272a8.589,8.589,0,0,1-8.589-8.589V.5Zm32.8,29.718a6.553,6.553,0,0,1-1.89,4.552l-4.294,4.294-9.147-9.1,4.337-4.337a6.442,6.442,0,0,1,10.994,4.6Z" transform="translate(52.711 0)" fill="gray"/>
  </g>
</svg>
