<svg xmlns="http://www.w3.org/2000/svg" width="445.088" height="457.066" viewBox="0 0 445.088 457.066">
  <g id="Group_57" data-name="Group 57" transform="translate(184.588 -3139.478)">
    <path id="Rectangle_100" data-name="Rectangle 100" d="M248.42,0h35.624a0,0,0,0,1,0,0V284.044a0,0,0,0,1,0,0H0a0,0,0,0,1,0,0V248.42A248.42,248.42,0,0,1,248.42,0Z" transform="translate(99.956 3139.978) rotate(90)" fill="none" stroke="#ccc" stroke-width="1"/>
    <path id="Rectangle_101" data-name="Rectangle 101" d="M248.42,0h35.624a0,0,0,0,1,0,0V284.044a0,0,0,0,1,0,0H0a0,0,0,0,1,0,0V248.42A248.42,248.42,0,0,1,248.42,0Z" transform="translate(260 3312) rotate(90)" fill="none" stroke="#ccc" stroke-width="1"/>
  </g>
</svg>
