<svg xmlns="http://www.w3.org/2000/svg" width="24.403" height="28.47" viewBox="0 0 24.403 28.47">
  <path id="Icon_metro-file-pdf" data-name="Icon metro-file-pdf" d="M25.893,8.241a3.7,3.7,0,0,1,.763,1.207,3.667,3.667,0,0,1,.318,1.4v18.3a1.519,1.519,0,0,1-1.525,1.525H4.1a1.519,1.519,0,0,1-1.525-1.525V3.729A1.519,1.519,0,0,1,4.1,2.2H18.331a3.668,3.668,0,0,1,1.4.318,3.7,3.7,0,0,1,1.207.763ZM18.839,4.364v5.974h5.974a1.736,1.736,0,0,0-.349-.651L19.491,4.714a1.735,1.735,0,0,0-.651-.35Zm6.1,24.276V12.371H18.331a1.519,1.519,0,0,1-1.525-1.525V4.237H4.6v24.4H24.94Zm-8.166-9.421a12.088,12.088,0,0,0,1.335.89A15.765,15.765,0,0,1,19.967,20q2.335,0,2.812.778a.768.768,0,0,1,.032.826.046.046,0,0,1-.016.032l-.032.032v.016q-.1.6-1.128.6a6.554,6.554,0,0,1-1.827-.318,11.585,11.585,0,0,1-2.065-.842,28.608,28.608,0,0,0-6.228,1.319q-2.431,4.162-3.845,4.162a.924.924,0,0,1-.445-.111L6.844,26.3q-.016-.016-.1-.079a.657.657,0,0,1-.1-.572,3.45,3.45,0,0,1,.89-1.454,7.678,7.678,0,0,1,2.1-1.533.232.232,0,0,1,.365.1.092.092,0,0,1,.032.064q.826-1.35,1.7-3.13a24.248,24.248,0,0,0,1.652-4.162A12.843,12.843,0,0,1,12.905,13a6.177,6.177,0,0,1,.1-2.026q.175-.635.667-.635h.35a.67.67,0,0,1,.556.238,1.269,1.269,0,0,1,.143,1.08.345.345,0,0,1-.064.127.413.413,0,0,1,.016.127v.477a20.8,20.8,0,0,1-.222,3.05,8.038,8.038,0,0,0,2.32,3.781Zm-9.151,6.53A7.015,7.015,0,0,0,9.8,23.238a9.057,9.057,0,0,0-1.39,1.335A5.281,5.281,0,0,0,7.623,25.749Zm6.323-14.616a4.724,4.724,0,0,0-.032,2.1q.016-.111.111-.7,0-.048.111-.683a.357.357,0,0,1,.064-.127.046.046,0,0,1-.016-.032.032.032,0,0,0-.008-.024.032.032,0,0,1-.008-.024.914.914,0,0,0-.207-.572.046.046,0,0,1-.016.032v.032Zm-1.97,10.5a23.3,23.3,0,0,1,4.512-1.287,2.4,2.4,0,0,1-.207-.151,2.845,2.845,0,0,1-.254-.214,8.416,8.416,0,0,1-2.018-2.8,21.231,21.231,0,0,1-1.319,3.13q-.477.89-.715,1.319Zm10.263-.254A3.8,3.8,0,0,0,20.015,21a6.009,6.009,0,0,0,1.97.445,1.541,1.541,0,0,0,.286-.016q0-.016-.032-.048Z" transform="translate(-2.571 -2.204)" fill="#fff"/>
</svg>
