<svg xmlns="http://www.w3.org/2000/svg" width="20" height="13.5" viewBox="0 0 20 13.5">
  <path id="Icon_zocial-email" data-name="Icon zocial-email" d="M.072,16.373V5.264q0-.019.058-.366L6.668,10.49.149,16.758a1.635,1.635,0,0,1-.077-.386ZM.94,4.126a.831.831,0,0,1,.328-.058H18.876a1.092,1.092,0,0,1,.347.058L12.666,9.738l-.868.694L10.082,11.84,8.365,10.433,7.5,9.738ZM.959,17.511,7.536,11.2l2.546,2.064L12.627,11.2,19.2,17.511a.926.926,0,0,1-.328.058H1.268a.873.873,0,0,1-.309-.058ZM13.5,10.49,20.014,4.9a1.151,1.151,0,0,1,.058.366V16.373a1.478,1.478,0,0,1-.058.386Z" transform="translate(-0.072 -4.068)" fill="#fff"/>
</svg>
