<svg xmlns="http://www.w3.org/2000/svg" width="96.163" height="84.143" viewBox="0 0 96.163 84.143">
  <path id="Icon_awesome-quote-right" data-name="Icon awesome-quote-right" d="M87.148,2.25H63.107a9.018,9.018,0,0,0-9.015,9.015V35.306a9.018,9.018,0,0,0,9.015,9.015H78.132v12.02a12.032,12.032,0,0,1-12.02,12.02h-1.5A4.5,4.5,0,0,0,60.1,72.87v9.015a4.5,4.5,0,0,0,4.508,4.508h1.5A30.043,30.043,0,0,0,96.163,56.342V11.265A9.018,9.018,0,0,0,87.148,2.25Zm-54.092,0H9.015A9.018,9.018,0,0,0,0,11.265V35.306a9.018,9.018,0,0,0,9.015,9.015H24.041v12.02a12.032,12.032,0,0,1-12.02,12.02h-1.5A4.5,4.5,0,0,0,6.01,72.87v9.015a4.5,4.5,0,0,0,4.508,4.508h1.5A30.043,30.043,0,0,0,42.071,56.342V11.265A9.018,9.018,0,0,0,33.056,2.25Z" transform="translate(0 -2.25)" fill="#00bcff"/>
</svg>
