<svg id="Component_12_1" data-name="Component 12 – 1" xmlns="http://www.w3.org/2000/svg" width="21.82" height="20.86" viewBox="0 0 21.82 20.86">
  <path id="Path_43" data-name="Path 43" d="M967.9,1882.136v8.067h-4.678v-7.53c0-1.892-.681-3.179-2.372-3.179a2.572,2.572,0,0,0-2.4,1.71,3.181,3.181,0,0,0-.154,1.143v7.856h-4.677s.067-12.754,0-14.07H958.3v1.988a4.665,4.665,0,0,1,4.216-2.314C965.6,1875.807,967.9,1877.814,967.9,1882.136Z" transform="translate(-946.084 -1869.343)" fill="#fff"/>
  <path id="Path_44" data-name="Path 44" d="M951.426,1871.85a2.446,2.446,0,0,1-2.651,2.429h-.029a2.441,2.441,0,1,1,.058-4.869A2.444,2.444,0,0,1,951.426,1871.85Z" transform="translate(-946.163 -1869.411)" fill="#fff"/>
  <rect id="Rectangle_76" data-name="Rectangle 76" width="4.677" height="14.07" transform="translate(0.278 6.79)" fill="#fff"/>
</svg>
