<svg xmlns="http://www.w3.org/2000/svg" width="85.031" height="89.843" viewBox="0 0 85.031 89.843">
  <g id="Group_4" data-name="Group 4" transform="translate(-877.524 717)">
    <rect id="Rectangle_1" data-name="Rectangle 1" width="85.031" height="89.843" transform="translate(877.524 -717)" fill="#fff"/>
    <g id="Group_2" data-name="Group 2" transform="translate(880.803 -713.465)">
      <rect id="Rectangle_4" data-name="Rectangle 4" width="78.474" height="2.113" transform="translate(0 80.66)" fill="#f0282b"/>
      <path id="Rectangle_5" data-name="Rectangle 5" d="M78.474,0h0a0,0,0,0,1,0,0V78.474a0,0,0,0,1,0,0H0a0,0,0,0,1,0,0v0A78.474,78.474,0,0,1,78.474,0Z" transform="translate(0 0)" fill="#044477"/>
      <path id="Path_2" data-name="Path 2" d="M1332.817,2171.681v-35.126h40.3l-.694.221a65.658,65.658,0,0,0-39.61,34.905Z" transform="translate(-1332.817 -2136.555)" fill="#00b4ef"/>
      <g id="Group_1" data-name="Group 1" transform="translate(15.527 32.387)">
        <path id="Path_3" data-name="Path 3" d="M1474.413,2283.362a7.015,7.015,0,0,1-7.42,5.615l-.094-.005a26.334,26.334,0,0,1-6.239-.584c-2.909-.767-4.889-4.037-4.854-6.661.082-6.207-.127-12.416-.1-18.624.015-3.831,1.48-7.011,5.234-8.468a12.145,12.145,0,0,1,10.875.991,6.566,6.566,0,0,1,3.233,5.9c.052,3.309.013,6.62.013,9.93A54.6,54.6,0,0,1,1474.413,2283.362Zm-10.711-11.483c0,3.356-.005,6.713,0,10.07,0,1.532.618,2.328,1.74,2.3,1.068-.024,1.709-.805,1.712-2.229q.018-10.07-.008-20.139c0-1.51-.56-2.17-1.7-2.195-1.184-.024-1.742.676-1.747,2.259C1463.694,2265.258,1463.7,2268.568,1463.7,2271.879Z" transform="translate(-1437.277 -2253.784)" fill="#fff"/>
        <path id="Path_4" data-name="Path 4" d="M1543.663,2265.17c0-1.049-.023-1.916.007-2.779.027-.8-.24-1.354-1.088-1.48a1.1,1.1,0,0,0-1.352,1.194,8.014,8.014,0,0,0,.428,3.447,21.007,21.007,0,0,0,2.925,3.967c1.933,2.275,4.049,4.4,5.9,6.738,3.258,4.12,1.074,11.071-2.476,12.948a12.842,12.842,0,0,1-8.311,1.016,6.412,6.412,0,0,1-4.7-3.764,16.353,16.353,0,0,1-.958-6.62h7.461a14.891,14.891,0,0,0,.052,3,1.25,1.25,0,0,0,.122.323,1.215,1.215,0,0,0,2.12.044.889.889,0,0,0,.114-.351c.17-2.034-1.058-3.548-2.294-4.988-1.948-2.267-4-4.446-5.889-6.762-2.578-3.163-2.787-6.812-1.716-10.576a6.222,6.222,0,0,1,4.651-4.67,19.152,19.152,0,0,1,6.521-.447c4.338.583,7.2,5.435,6.436,9.694Z" transform="translate(-1493.513 -2254.873)" fill="#fff"/>
        <path id="Path_5" data-name="Path 5" d="M1403.342,2291.529c-4.735.042-9.47.031-14.324.031v-34.3h14.8v5.04h-7.076v8.841h7.108v5.473h-7.026v9.54h7.294v5.367Z" transform="translate(-1389.018 -2256.302)" fill="#fff"/>
      </g>
    </g>
  </g>
</svg>
