<svg xmlns="http://www.w3.org/2000/svg" width="224.009" height="237.286" viewBox="0 0 224.009 237.286">
  <g id="Group_10" data-name="Group 10" transform="translate(-865.524 730)">
    <rect id="Rectangle_1" data-name="Rectangle 1" width="224.009" height="237.286" transform="translate(865.524 -730)" fill="#fff"/>
    <g id="Group_2" data-name="Group 2" transform="translate(884.512 -709.47)">
      <rect id="Rectangle_4" data-name="Rectangle 4" width="186.033" height="5.009" transform="translate(0 191.215)" fill="#f0282b"/>
      <path id="Rectangle_5" data-name="Rectangle 5" d="M186.033,0h0a0,0,0,0,1,0,0V186.033a0,0,0,0,1,0,0H0a0,0,0,0,1,0,0v0A186.033,186.033,0,0,1,186.033,0Z" transform="translate(0 0)" fill="#044477"/>
      <path id="Path_2" data-name="Path 2" d="M1332.817,2219.826v-83.271h95.545l-1.645.523a155.651,155.651,0,0,0-93.9,82.748Z" transform="translate(-1332.817 -2136.555)" fill="#00b4ef"/>
      <g id="Group_1" data-name="Group 1" transform="translate(36.809 76.778)">
        <path id="Path_3" data-name="Path 3" d="M1500.062,2323.9c-1.6,8.373-9.075,13.7-17.591,13.311-.147-.006-.224-.012-.224-.012-4.95-.089-10.007-.123-14.79-1.384-6.9-1.818-11.59-9.57-11.508-15.791.195-14.714-.3-29.434-.246-44.151.036-9.083,3.51-16.621,12.409-20.076,8.791-3.413,17.64-2.409,25.782,2.351,5.189,3.033,7.57,8.052,7.663,14,.124,7.845.031,15.694.031,23.54C1502.038,2308.832,1501.226,2317.822,1500.062,2323.9Zm-25.393-27.222c0,7.956-.012,15.914.006,23.871.008,3.631,1.464,5.518,4.125,5.459,2.531-.056,4.052-1.91,4.058-5.284q.044-23.871-.019-47.743c-.01-3.58-1.328-5.146-4.021-5.2-2.806-.058-4.13,1.6-4.142,5.355C1474.651,2280.985,1474.669,2288.833,1474.669,2296.681Z" transform="translate(-1412.026 -2253.783)" fill="#fff"/>
        <path id="Path_4" data-name="Path 4" d="M1557.727,2278.714c0-2.488-.054-4.541.017-6.589.065-1.9-.57-3.209-2.578-3.509a2.615,2.615,0,0,0-3.2,2.83c.006,2.752-.151,5.85,1.015,8.172,1.725,3.433,4.409,6.431,6.934,9.4,4.582,5.393,9.6,10.43,13.982,15.974,7.723,9.768,2.546,26.245-5.871,30.7a30.444,30.444,0,0,1-19.7,2.409,15.2,15.2,0,0,1-11.13-8.923c-2.962-7.058-2.272-15.694-2.272-15.694H1552.6c0,2.611-.344,4.945.124,7.1a2.987,2.987,0,0,0,.288.765,2.882,2.882,0,0,0,5.026.105,2.112,2.112,0,0,0,.271-.833c.4-4.821-2.508-8.411-5.439-11.825-4.618-5.375-9.488-10.54-13.962-16.03-6.112-7.5-6.606-16.149-4.068-25.072,1.6-5.611,5.351-9.826,11.026-11.072a45.388,45.388,0,0,1,15.46-1.059c10.284,1.382,17.072,12.885,15.258,22.981Z" transform="translate(-1438.838 -2254.303)" fill="#fff"/>
        <path id="Path_5" data-name="Path 5" d="M1422.975,2338.495c-11.224.1-22.449.074-33.957.074v-81.306h35.08v11.949h-16.774v20.959h16.85v12.974h-16.657v22.616h17.291v12.724Z" transform="translate(-1389.018 -2254.984)" fill="#fff"/>
      </g>
    </g>
  </g>
</svg>
