<svg id="Component_11_1" data-name="Component 11 – 1" xmlns="http://www.w3.org/2000/svg" width="23.81" height="19.346" viewBox="0 0 23.81 19.346">
  <path id="Path_45" data-name="Path 45" d="M917.374,1873.2a10.158,10.158,0,0,1-2.812.77,4.855,4.855,0,0,0,2.148-2.7,9.8,9.8,0,0,1-3.1,1.181,4.88,4.88,0,0,0-8.443,3.338,5.051,5.051,0,0,0,.112,1.113,13.816,13.816,0,0,1-10.06-5.105,4.881,4.881,0,0,0,1.5,6.524,4.819,4.819,0,0,1-2.205-.6v.053a4.9,4.9,0,0,0,3.91,4.8,4.881,4.881,0,0,1-1.279.161,4.3,4.3,0,0,1-.924-.084,4.925,4.925,0,0,0,4.561,3.4,9.8,9.8,0,0,1-6.052,2.082,9.085,9.085,0,0,1-1.168-.067,13.893,13.893,0,0,0,21.382-11.7c0-.216-.008-.425-.018-.632A9.738,9.738,0,0,0,917.374,1873.2Z" transform="translate(-893.564 -1870.909)" fill="#fff"/>
</svg>
