<svg id="Component_12_69" data-name="Component 12 – 69" xmlns="http://www.w3.org/2000/svg" width="26.593" height="25.423" viewBox="0 0 26.593 25.423">
  <path id="Path_43" data-name="Path 43" d="M971.028,1883.521v9.832h-5.7v-9.177c0-2.306-.83-3.875-2.891-3.875a3.134,3.134,0,0,0-2.926,2.084,3.875,3.875,0,0,0-.187,1.393v9.574h-5.7s.081-15.544,0-17.148h5.7v2.423a5.685,5.685,0,0,1,5.138-2.821C968.219,1875.807,971.028,1878.253,971.028,1883.521Z" transform="translate(-944.435 -1867.93)" fill="#333"/>
  <path id="Path_44" data-name="Path 44" d="M952.577,1872.384a2.981,2.981,0,0,1-3.231,2.961h-.036a2.978,2.978,0,1,1,3.266-2.961Z" transform="translate(-946.163 -1869.411)" fill="#333"/>
  <rect id="Rectangle_76" data-name="Rectangle 76" width="5.7" height="17.147" transform="translate(0.339 8.275)" fill="#333"/>
</svg>
