<svg id="Component_11_87" data-name="Component 11 – 87" xmlns="http://www.w3.org/2000/svg" width="29.018" height="23.578" viewBox="0 0 29.018 23.578">
  <path id="Path_45" data-name="Path 45" d="M922.582,1873.7a12.376,12.376,0,0,1-3.428.938,5.917,5.917,0,0,0,2.617-3.287,11.936,11.936,0,0,1-3.773,1.44,5.948,5.948,0,0,0-10.29,4.068,6.157,6.157,0,0,0,.137,1.356,16.838,16.838,0,0,1-12.261-6.222,5.948,5.948,0,0,0,1.828,7.951,5.873,5.873,0,0,1-2.687-.733v.065a5.976,5.976,0,0,0,4.765,5.845,5.954,5.954,0,0,1-1.559.2,5.239,5.239,0,0,1-1.126-.1,6,6,0,0,0,5.558,4.145,11.949,11.949,0,0,1-7.376,2.537,11.062,11.062,0,0,1-1.424-.081,16.745,16.745,0,0,0,9.126,2.67c10.947,0,16.932-9.068,16.932-16.929,0-.263-.01-.517-.022-.77A11.866,11.866,0,0,0,922.582,1873.7Z" transform="translate(-893.564 -1870.909)" fill="#333"/>
</svg>
